<?xml version="1.0" standalone="no"?>
<svg xmlns:xlink="http://www.w3.org/1999/xlink" id="wave" style="transform:rotate(0deg); transition: 0.3s" viewBox="0 0 1440 490" version="1.1" xmlns="http://www.w3.org/2000/svg"><defs><linearGradient id="sw-gradient-0" x1="0" x2="0" y1="1" y2="0"><stop stop-color="rgba(243, 182.496, 62, 1)" offset="0%"/><stop stop-color="rgba(255, 224, 102, 1)" offset="100%"/></linearGradient></defs><path style="transform:translate(0, 0px); opacity:1" fill="url(#sw-gradient-0)" d="M0,98L40,114.3C80,131,160,163,240,171.5C320,180,400,163,480,204.2C560,245,640,343,720,343C800,343,880,245,960,187.8C1040,131,1120,114,1200,147C1280,180,1360,261,1440,318.5C1520,376,1600,408,1680,351.2C1760,294,1840,147,1920,122.5C2000,98,2080,196,2160,204.2C2240,212,2320,131,2400,89.8C2480,49,2560,49,2640,98C2720,147,2800,245,2880,261.3C2960,278,3040,212,3120,171.5C3200,131,3280,114,3360,163.3C3440,212,3520,327,3600,343C3680,359,3760,278,3840,253.2C3920,229,4000,261,4080,285.8C4160,310,4240,327,4320,334.8C4400,343,4480,343,4560,318.5C4640,294,4720,245,4800,236.8C4880,229,4960,261,5040,269.5C5120,278,5200,261,5280,277.7C5360,294,5440,343,5520,343C5600,343,5680,294,5720,269.5L5760,245L5760,490L5720,490C5680,490,5600,490,5520,490C5440,490,5360,490,5280,490C5200,490,5120,490,5040,490C4960,490,4880,490,4800,490C4720,490,4640,490,4560,490C4480,490,4400,490,4320,490C4240,490,4160,490,4080,490C4000,490,3920,490,3840,490C3760,490,3680,490,3600,490C3520,490,3440,490,3360,490C3280,490,3200,490,3120,490C3040,490,2960,490,2880,490C2800,490,2720,490,2640,490C2560,490,2480,490,2400,490C2320,490,2240,490,2160,490C2080,490,2000,490,1920,490C1840,490,1760,490,1680,490C1600,490,1520,490,1440,490C1360,490,1280,490,1200,490C1120,490,1040,490,960,490C880,490,800,490,720,490C640,490,560,490,480,490C400,490,320,490,240,490C160,490,80,490,40,490L0,490Z"/><defs><linearGradient id="sw-gradient-1" x1="0" x2="0" y1="1" y2="0"><stop stop-color="rgba(255, 111, 97, 1)" offset="0%"/><stop stop-color="rgba(255, 224, 102, 1)" offset="100%"/></linearGradient></defs><path style="transform:translate(0, 50px); opacity:0.9" fill="url(#sw-gradient-1)" d="M0,147L40,130.7C80,114,160,82,240,130.7C320,180,400,310,480,367.5C560,425,640,408,720,408.3C800,408,880,425,960,432.8C1040,441,1120,441,1200,432.8C1280,425,1360,408,1440,375.7C1520,343,1600,294,1680,228.7C1760,163,1840,82,1920,65.3C2000,49,2080,98,2160,130.7C2240,163,2320,180,2400,228.7C2480,278,2560,359,2640,326.7C2720,294,2800,147,2880,98C2960,49,3040,98,3120,138.8C3200,180,3280,212,3360,236.8C3440,261,3520,278,3600,253.2C3680,229,3760,163,3840,147C3920,131,4000,163,4080,155.2C4160,147,4240,98,4320,106.2C4400,114,4480,180,4560,171.5C4640,163,4720,82,4800,65.3C4880,49,4960,98,5040,98C5120,98,5200,49,5280,49C5360,49,5440,98,5520,163.3C5600,229,5680,310,5720,351.2L5760,392L5760,490L5720,490C5680,490,5600,490,5520,490C5440,490,5360,490,5280,490C5200,490,5120,490,5040,490C4960,490,4880,490,4800,490C4720,490,4640,490,4560,490C4480,490,4400,490,4320,490C4240,490,4160,490,4080,490C4000,490,3920,490,3840,490C3760,490,3680,490,3600,490C3520,490,3440,490,3360,490C3280,490,3200,490,3120,490C3040,490,2960,490,2880,490C2800,490,2720,490,2640,490C2560,490,2480,490,2400,490C2320,490,2240,490,2160,490C2080,490,2000,490,1920,490C1840,490,1760,490,1680,490C1600,490,1520,490,1440,490C1360,490,1280,490,1200,490C1120,490,1040,490,960,490C880,490,800,490,720,490C640,490,560,490,480,490C400,490,320,490,240,490C160,490,80,490,40,490L0,490Z"/><defs><linearGradient id="sw-gradient-2" x1="0" x2="0" y1="1" y2="0"><stop stop-color="rgba(222.556, 63.185, 47.691, 1)" offset="0%"/><stop stop-color="rgba(228.02, 154.576, 52.724, 1)" offset="100%"/></linearGradient></defs><path style="transform:translate(0, 100px); opacity:0.8" fill="url(#sw-gradient-2)" d="M0,196L40,228.7C80,261,160,327,240,359.3C320,392,400,392,480,326.7C560,261,640,131,720,122.5C800,114,880,229,960,245C1040,261,1120,180,1200,179.7C1280,180,1360,261,1440,269.5C1520,278,1600,212,1680,171.5C1760,131,1840,114,1920,122.5C2000,131,2080,163,2160,179.7C2240,196,2320,196,2400,179.7C2480,163,2560,131,2640,155.2C2720,180,2800,261,2880,261.3C2960,261,3040,180,3120,138.8C3200,98,3280,98,3360,114.3C3440,131,3520,163,3600,220.5C3680,278,3760,359,3840,326.7C3920,294,4000,147,4080,89.8C4160,33,4240,65,4320,130.7C4400,196,4480,294,4560,334.8C4640,376,4720,359,4800,318.5C4880,278,4960,212,5040,163.3C5120,114,5200,82,5280,122.5C5360,163,5440,278,5520,343C5600,408,5680,425,5720,432.8L5760,441L5760,490L5720,490C5680,490,5600,490,5520,490C5440,490,5360,490,5280,490C5200,490,5120,490,5040,490C4960,490,4880,490,4800,490C4720,490,4640,490,4560,490C4480,490,4400,490,4320,490C4240,490,4160,490,4080,490C4000,490,3920,490,3840,490C3760,490,3680,490,3600,490C3520,490,3440,490,3360,490C3280,490,3200,490,3120,490C3040,490,2960,490,2880,490C2800,490,2720,490,2640,490C2560,490,2480,490,2400,490C2320,490,2240,490,2160,490C2080,490,2000,490,1920,490C1840,490,1760,490,1680,490C1600,490,1520,490,1440,490C1360,490,1280,490,1200,490C1120,490,1040,490,960,490C880,490,800,490,720,490C640,490,560,490,480,490C400,490,320,490,240,490C160,490,80,490,40,490L0,490Z"/></svg>