<svg width="512" height="512" viewBox="0 0 512 512" fill="none" xmlns="http://www.w3.org/2000/svg">
<path d="M484.002 164.8C484.002 164.8 475.202 272.8 353.602 273.6C377.602 204 387.202 128 383.202 45.6C428.802 73.6 464.802 115.2 484.002 164.8Z" fill="#EB8181"/>
<path d="M378.398 268.8C396.798 208.8 405.598 144.8 403.998 76C437.598 101.6 463.998 135.2 479.998 174.4C478.398 188.8 463.998 260.8 378.398 268.8Z" fill="white"/>
<path d="M354.4 273.6C346.4 296 337.6 317.6 326.4 339.2C234.4 289.6 144 212 56 113.6C56 112.8 56.8 112 56.8 112C92.8 61.6 148 25.6 211.2 14.4C211.2 14.4 256 62.4 261.6 158.4C273.6 252.8 354.4 273.6 354.4 273.6Z" fill="#EB8181"/>
<path d="M328.798 331.2C247.198 284.8 164.798 216 78.3984 120C111.998 76.8 159.998 46.4 214.398 34.4C224.798 48 253.598 92.8 258.398 166.4C267.998 245.6 323.198 277.6 347.198 288C341.598 303.2 335.998 317.6 328.798 331.2Z" fill="white"/>
<path d="M307.2 373.6C280.8 417.6 246.4 458.4 205.6 496.8C103.2 475.2 24 389.6 12 284.8C12 284.8 96 352 188.8 355.2C234.4 356 276.8 358.4 307.2 373.6Z" fill="#EB8181"/>
<path d="M209.6 491.2C122.4 471.2 56 403.2 36 317.6C68 338.4 129.6 372 196.8 374.4C231.2 375.2 269.6 376.8 298.4 387.2C273.6 424 244 459.2 209.6 491.2Z" fill="white"/>
<path d="M460.798 391.2C434.398 431.2 396.798 462.4 352.798 481.6C357.598 420.8 339.198 389.6 306.398 373.6C313.598 362.4 319.998 351.2 325.598 339.2C370.398 363.2 415.998 380.8 460.798 391.2Z" fill="#EB8181"/>
<path d="M373.599 470.4C373.599 426.4 359.199 395.2 331.199 376.8C333.599 372 336.799 367.2 339.199 362.4C375.999 381.6 413.599 396 450.399 405.6C428.799 432.8 403.199 455.2 373.599 470.4Z" fill="white"/>
<path d="M463.202 385.6C425.602 376 387.202 361.6 348.802 341.6C356.802 325.6 363.202 308.8 369.602 292C444.002 288.8 477.602 245.6 492.002 212C496.002 228.8 497.602 245.6 497.602 262.4C497.602 307.2 486.402 349.6 463.202 385.6ZM354.402 267.2C333.602 258.4 288.802 232 280.802 165.6C276.802 98.4 254.402 53.6 239.202 31.2C247.202 30.4 255.202 30.4 263.202 30.4C304.002 30.4 344.802 40.8 380.002 61.6C384.002 134.4 375.202 204 354.402 267.2ZM310.402 366.4C277.602 353.6 235.202 352 197.602 351.2C120.002 348.8 47.2016 298.4 30.4016 285.6C29.6016 278.4 29.6016 271.2 29.6016 263.2C29.6016 219.2 41.6016 176 64.8016 139.2C152.002 235.2 235.202 304.8 318.402 352C316.002 356.8 312.802 361.6 310.402 366.4ZM264.002 497.6C255.202 497.6 246.402 496.8 237.602 496C268.802 464.8 296.002 431.2 318.402 396C335.202 407.2 352.802 428.8 349.602 480.8C322.402 492 293.602 497.6 264.002 497.6Z" fill="#EB8181"/>
<path d="M460.798 391.2C434.398 431.2 396.798 462.4 352.798 481.6C357.598 420.8 339.198 389.6 306.398 373.6C313.598 362.4 319.998 351.2 325.598 339.2C370.398 363.2 415.998 380.8 460.798 391.2Z" stroke="#D50808" stroke-width="1.92" stroke-miterlimit="10" stroke-linecap="round" stroke-linejoin="round"/>
<path d="M501.602 256C501.602 306.4 486.402 352.8 460.802 391.2C415.202 380.8 370.402 363.2 325.602 339.2C336.802 318.4 345.602 296 353.602 273.6C474.402 272.8 484.002 164.8 484.002 164.8C496.002 193.6 501.602 224 501.602 256Z" stroke="#D50808" stroke-width="1.905" stroke-miterlimit="10" stroke-linecap="round" stroke-linejoin="round"/>
<path d="M484.002 164.8C484.002 164.8 475.202 272.8 353.602 273.6C377.602 204 387.202 128 383.202 45.6C428.802 73.6 464.802 115.2 484.002 164.8Z" stroke="#D50808" stroke-width="1.92" stroke-miterlimit="10" stroke-linecap="round" stroke-linejoin="round"/>
<path d="M354.4 273.6C354.4 273.6 273.6 252.8 262.4 158.4C256.8 61.6 212 14.4 212 14.4C226.4 12 241.6 10.4 256.8 10.4C304 10.4 347.2 23.2 384.8 46.4C388 128 378.4 204 354.4 273.6Z" stroke="#D50808" stroke-width="1.905" stroke-miterlimit="10" stroke-linecap="round" stroke-linejoin="round"/>
<path d="M354.4 273.6C346.4 296 337.6 317.6 326.4 339.2C234.4 289.6 144 212 56 113.6C56 112.8 56.8 112 56.8 112C92.8 61.6 148 25.6 211.2 14.4C211.2 14.4 256 62.4 261.6 158.4C273.6 252.8 354.4 273.6 354.4 273.6Z" stroke="#D50808" stroke-width="1.92" stroke-miterlimit="10" stroke-linecap="round" stroke-linejoin="round"/>
<path d="M326.398 339.2C320.798 350.4 314.398 362.4 307.198 373.6C276.798 358.4 234.398 356 188.798 355.2C95.9984 352 11.9984 284.8 11.9984 284.8C11.1984 275.2 10.3984 265.6 10.3984 256C10.3984 202.4 27.1984 153.6 55.9984 113.6C143.998 212 234.398 289.6 326.398 339.2Z" stroke="#D50808" stroke-width="1.905" stroke-miterlimit="10" stroke-linecap="round" stroke-linejoin="round"/>
<path d="M307.2 373.6C280.8 417.6 246.4 458.4 205.6 496.8C103.2 475.2 24 389.6 12 284.8C12 284.8 96 352 188.8 355.2C234.4 356 276.8 358.4 307.2 373.6Z" stroke="#D50808" stroke-width="1.92" stroke-miterlimit="10" stroke-linecap="round" stroke-linejoin="round"/>
<path d="M353.601 481.6C324.001 494.4 291.201 501.6 256.001 501.6C238.401 501.6 221.601 500 204.801 496C246.401 458.4 280.001 416.8 306.401 372.8C339.201 389.6 358.401 420.8 353.601 481.6Z" stroke="#D50808" stroke-width="1.89" stroke-miterlimit="10" stroke-linecap="round" stroke-linejoin="round"/>
</svg>
