<svg width="512" height="512" viewBox="0 0 512 512" fill="none" xmlns="http://www.w3.org/2000/svg">
<path d="M36.5039 319.629C56.0381 315.208 63.8236 320.711 67.6929 327.195C68.2675 328.161 68.6075 329.212 68.6974 330.26C69.2837 337.123 62.1039 341.567 51.008 343.091C29.7854 346.01 7.31212 333.464 30.6961 321.782C32.5348 320.829 34.4842 320.107 36.5 319.633L36.5039 319.629Z" fill="#C43838"/>
<path d="M385.267 324.28L142.055 334.883C74.2485 337.842 12.019 291.645 8.3764 230.584L8.08718 225.686C4.37811 163.563 62.8634 117.838 133.031 123.967L383.364 145.838C429.725 149.887 465.065 190.37 465.073 236.005V239.608C465.08 284.66 430.538 322.306 385.267 324.28Z" fill="#FAE1E1"/>
<path d="M465.079 236.001V239.624C465.079 284.676 430.529 322.286 385.27 324.295L142.05 334.891C102.693 336.626 65.2111 321.751 39.9629 297.046L374.991 293.04C420.289 292.344 455.934 255.656 457.223 210.643L457.302 207.02C457.38 204.44 457.341 201.857 457.145 199.274C462.365 210.815 465.07 223.334 465.079 236.001Z" fill="#F8C8C8"/>
<path d="M410.969 348.981C297.836 344.443 187.291 347.898 74.991 347.898C62.7108 347.898 45.1621 344.443 45.1621 328.888C46.9209 320.25 53.9365 315.064 62.7108 313.332C178.782 303.249 291.532 309.518 405.415 310.116C414.142 310.163 422.87 310.866 431.429 312.558L431.589 312.59C437.034 313.672 442.443 315.048 447.809 316.772C452.921 319.367 456.533 323.037 456.802 327.551C457.373 337.189 456.994 346.98 426.215 348.742C421.799 348.996 416.765 349.082 410.969 348.981Z" fill="#FF6868"/>
<path d="M109.068 171.227C111.296 190.769 112.734 208.564 114.302 228.301C114.407 229.63 113.473 230.67 112.183 230.658C94.4609 230.528 76.7389 230.35 59.0174 230.126C57.5518 230.119 56.1721 228.817 56.0548 227.328C55.9686 226.21 55.8905 225.09 55.8203 223.971C54.1671 197.937 68.9252 165.591 99.1371 167.885C101.547 167.921 103.953 168.075 106.348 168.346C107.712 168.499 108.904 169.753 109.072 171.231L109.068 171.227ZM183.836 174.791C184.594 193.923 184.715 211.362 184.825 230.717C184.829 232.018 183.848 233.042 182.601 233.03C165.434 232.911 148.266 232.745 131.1 232.534C129.681 232.526 128.438 231.252 128.431 229.79C128.431 228.919 128.431 227.828 128.446 226.499C128.731 200.978 145.362 169.3 174.448 171.524C176.656 171.551 178.97 171.7 181.401 171.973C182.71 172.118 183.777 173.349 183.832 174.787L183.836 174.791ZM256.235 174.791C256.997 193.923 257.118 211.362 257.224 230.717C257.232 232.018 256.251 233.042 255.004 233.03C237.837 232.911 220.67 232.745 203.503 232.534C202.08 232.526 200.838 231.252 200.834 229.79C200.834 228.919 200.834 227.828 200.849 226.499C201.135 200.978 217.765 169.3 246.851 171.524C249.055 171.551 251.373 171.7 253.804 171.973C255.11 172.118 256.176 173.353 256.235 174.791ZM365.807 180.783C366.077 202.905 365.291 228.133 365.713 250.485C365.748 252.361 367.366 253.815 369.27 253.729C388.831 252.803 406.814 252.803 423.089 252.877C423.594 252.886 424.095 252.779 424.553 252.564C425.011 252.35 425.415 252.035 425.733 251.641C426.051 251.248 426.275 250.787 426.388 250.295C426.502 249.802 426.501 249.29 426.387 248.797C421.04 226.304 416.006 195.936 385.099 182.202C379.768 180.177 373.823 179.102 367.21 179.329C366.832 179.339 366.473 179.497 366.21 179.769C365.947 180.041 365.805 180.405 365.807 180.783ZM438.581 281.397C438.894 271.118 446.215 269.085 455.857 270.449C457.568 270.692 459.265 271.219 460.781 271.989C471.627 277.485 469.251 285.544 461.387 290.175C453.195 295.002 441.415 291.953 438.968 283.82C438.708 283.039 438.58 282.22 438.581 281.397Z" fill="#C43838"/>
<path d="M366.275 262.078L376.417 262.699C377.066 262.738 377.597 263.434 377.628 264.231C377.652 265.009 377.187 265.634 376.573 265.646L367.088 265.834C366.548 265.817 366.027 265.628 365.603 265.294C365.179 264.96 364.873 264.498 364.731 263.977C364.457 262.875 365.165 262.007 366.275 262.078Z" fill="#EB8181"/>
<path d="M142.476 355.054C144.102 371.45 135.441 386.009 121.996 388.327C107.046 390.906 91.1196 377.75 87.8874 357.857C84.4988 337.009 96.7672 320.492 113.503 321.755C128.417 322.877 140.788 338.014 142.476 355.054Z" fill="white"/>
<path d="M125.683 355.172C126.348 362.199 123.01 368.417 117.788 369.383C111.984 370.457 105.77 364.794 104.476 356.266C103.116 347.327 107.849 340.277 114.357 340.851C120.153 341.359 124.991 347.867 125.683 355.172Z" fill="#E13232"/>
<path d="M397.863 359.522C396.882 374.624 385.802 386.388 371.856 386.306C356.34 386.212 342.36 371.728 342.278 353.202C342.192 333.785 357.227 320.833 373.928 324.69C388.811 328.126 398.883 343.83 397.863 359.522Z" fill="white"/>
<path d="M381.073 356.887C380.682 362.856 376.305 367.507 370.794 367.475C364.661 367.436 359.135 361.71 359.104 354.39C359.068 346.714 365.013 341.594 371.611 343.118C377.497 344.478 381.475 350.685 381.073 356.887Z" fill="#E13232"/>
<path d="M344.153 307.642H292.359V200.415C292.359 197.014 293.029 193.646 294.331 190.504C295.632 187.362 297.54 184.508 299.944 182.103C302.349 179.698 305.204 177.79 308.346 176.489C311.488 175.188 314.856 174.518 318.256 174.518C321.657 174.518 325.025 175.188 328.167 176.489C331.309 177.79 334.164 179.698 336.568 182.103C338.973 184.508 340.881 187.362 342.182 190.504C343.484 193.646 344.153 197.014 344.153 200.415V307.642ZM36.5039 320.532C56.042 316.045 63.8236 321.626 67.6929 328.2C68.2714 329.185 68.6114 330.248 68.7013 331.311C69.2876 338.268 62.1078 342.778 51.0119 344.326C29.7893 347.284 7.31602 334.559 30.7 322.712C32.4705 321.817 34.3191 321.032 36.5039 320.532Z" fill="#C43838"/>
<path d="M385.267 325.245L142.055 336.005C74.2485 339.003 12.019 292.149 8.3764 230.224L8.08718 225.26C4.37811 162.253 62.8634 115.88 133.031 122.098L383.364 144.278C429.725 148.382 465.065 189.44 465.073 235.719V239.374C465.08 285.067 430.538 323.248 385.267 325.245Z" fill="#FAE1E1"/>
<path d="M465.079 235.715V239.389C465.079 285.078 430.529 323.224 385.27 325.257L142.05 336.005C102.693 337.764 65.2111 322.677 39.9629 297.624L374.991 293.56C420.289 292.856 455.934 255.648 457.223 209.998L457.302 206.324C457.38 203.706 457.341 201.087 457.145 198.468C462.265 209.998 465.079 222.622 465.079 235.715Z" fill="#F8C8C8"/>
<path d="M410.969 350.298C297.836 345.694 187.291 349.2 74.991 349.2C62.7108 349.2 45.1621 345.694 45.1621 329.92C46.9209 321.157 53.9365 315.9 62.7108 314.145C178.782 303.917 291.532 310.276 405.415 310.882C414.142 310.929 422.87 311.64 431.429 313.356L431.589 313.391C437.034 314.485 442.443 315.884 447.809 317.632C452.921 320.262 456.533 323.987 456.802 328.563C457.373 338.334 456.994 348.269 426.215 350.056C421.138 350.327 416.052 350.408 410.969 350.298Z" fill="#FF6868"/>
<path d="M109.068 170.027C111.296 189.843 112.734 207.892 114.302 227.91C114.407 229.255 113.473 230.31 112.183 230.302C94.4596 230.169 76.7363 229.988 59.0135 229.759C57.5479 229.751 56.1682 228.43 56.0509 226.922C55.9806 226.023 55.9024 224.889 55.8164 223.521C54.1632 197.112 68.9213 164.309 99.1332 166.638C101.543 166.675 103.95 166.832 106.344 167.107C107.708 167.26 108.9 168.534 109.068 170.027ZM183.836 173.638C184.594 193.044 184.715 210.729 184.825 230.357C184.829 231.678 183.848 232.714 182.601 232.702C165.434 232.582 148.266 232.415 131.1 232.202C129.681 232.19 128.438 230.9 128.431 229.419C128.431 228.536 128.431 227.426 128.446 226.081C128.731 200.2 145.362 168.073 174.448 170.328C176.772 170.361 179.093 170.513 181.401 170.781C182.71 170.93 183.781 172.177 183.836 173.638ZM256.235 173.638C256.997 193.044 257.118 210.729 257.224 230.357C257.232 231.678 256.251 232.714 255.004 232.702C237.837 232.582 220.67 232.415 203.503 232.202C202.08 232.19 200.838 230.9 200.834 229.419C200.834 228.536 200.834 227.426 200.849 226.081C201.135 200.2 217.765 168.073 246.851 170.328C249.175 170.361 251.496 170.513 253.804 170.781C255.11 170.93 256.176 172.177 256.235 173.638ZM365.807 179.716C366.077 202.15 365.291 227.738 365.713 250.407C365.748 252.307 367.366 253.784 369.27 253.69C388.831 252.76 406.814 252.76 423.089 252.83C423.598 252.834 424.101 252.722 424.561 252.502C425.021 252.283 425.424 251.962 425.742 251.564C426.06 251.166 426.283 250.701 426.394 250.204C426.506 249.707 426.504 249.191 426.387 248.695C421.04 225.882 416.006 195.084 385.099 181.158C379.768 179.106 373.823 178.012 367.21 178.242C366.83 178.256 366.469 178.417 366.207 178.693C365.944 178.968 365.803 179.335 365.807 179.716ZM438.581 281.756C438.894 271.333 446.215 269.269 455.857 270.653C457.568 270.899 459.265 271.434 460.781 272.216C471.627 277.789 469.251 285.962 461.387 290.664C453.195 295.553 441.415 292.461 438.968 284.215C438.708 283.42 438.576 282.589 438.577 281.752L438.581 281.756Z" fill="#C43838"/>
<path d="M366.275 262.164L376.417 262.789C377.066 262.832 377.597 263.535 377.628 264.348C377.652 265.134 377.187 265.771 376.573 265.783L367.088 265.974C366.067 265.994 364.997 265.165 364.731 264.09C364.457 262.973 365.165 262.097 366.275 262.164Z" fill="#EB8181"/>
<path d="M142.476 356.458C144.102 373.084 135.441 387.85 121.996 390.199C107.046 392.813 91.1196 379.474 87.8874 359.299C84.4988 338.154 96.7672 321.407 113.503 322.685C128.417 323.822 140.788 339.182 142.476 356.458Z" fill="white"/>
<path d="M125.683 356.575C126.348 363.7 123.01 370.008 117.788 370.989C111.984 372.079 105.77 366.334 104.476 357.685C103.116 348.617 107.849 341.469 114.357 342.051C120.153 342.567 124.991 349.168 125.683 356.575Z" fill="#E13232"/>
<path d="M397.863 360.987C396.882 376.3 385.802 388.233 371.856 388.151C356.34 388.057 342.36 373.365 342.278 354.578C342.192 334.887 357.227 321.747 373.928 325.659C388.811 329.146 398.883 345.068 397.863 360.987Z" fill="white"/>
<path d="M381.073 358.314C380.682 364.368 376.305 369.086 370.794 369.05C364.661 369.011 359.135 363.207 359.104 355.781C359.068 347.996 365.013 342.805 371.611 344.353C377.497 345.729 381.475 352.025 381.073 358.314Z" fill="#E13232"/>
<path d="M344.153 308.373H292.359V199.262C292.359 195.861 293.029 192.493 294.331 189.351C295.632 186.209 297.54 183.355 299.944 180.95C302.349 178.545 305.204 176.637 308.346 175.336C311.488 174.035 314.856 173.365 318.256 173.365C321.657 173.365 325.025 174.035 328.167 175.336C331.309 176.637 334.164 178.545 336.568 180.95C338.973 183.355 340.881 186.209 342.182 189.351C343.484 192.493 344.153 195.861 344.153 199.262V308.373ZM36.5039 319.629C56.0381 315.208 63.8236 320.711 67.6929 327.195C68.2675 328.161 68.6075 329.212 68.6974 330.26C69.2837 337.123 62.1039 341.567 51.008 343.091C29.7854 346.01 7.31212 333.464 30.6961 321.782C32.5348 320.829 34.4842 320.107 36.5 319.633L36.5039 319.629Z" fill="#C43838"/>
<path d="M385.267 324.28L142.055 334.883C74.2485 337.842 12.019 291.645 8.3764 230.584L8.08718 225.686C4.37811 163.563 62.8634 117.838 133.031 123.967L383.364 145.838C429.725 149.887 465.065 190.37 465.073 236.005V239.608C465.08 284.66 430.538 322.306 385.267 324.28Z" fill="#FAE1E1"/>
<path d="M465.079 236.001V239.624C465.079 284.676 430.529 322.286 385.27 324.295L142.05 334.891C102.693 336.626 65.2111 321.751 39.9629 297.046L374.991 293.04C420.289 292.344 455.934 255.656 457.223 210.643L457.302 207.02C457.38 204.44 457.341 201.857 457.145 199.274C462.365 210.815 465.07 223.334 465.079 236.001Z" fill="#F8C8C8"/>
<path d="M410.969 348.981C297.836 344.443 187.291 347.898 74.991 347.898C62.7108 347.898 45.1621 344.443 45.1621 328.888C46.9209 320.25 53.9365 315.064 62.7108 313.332C178.782 303.249 291.532 309.518 405.415 310.116C414.142 310.163 422.87 310.866 431.429 312.558L431.589 312.59C437.034 313.672 442.443 315.048 447.809 316.772C452.921 319.367 456.533 323.037 456.802 327.551C457.373 337.189 456.994 346.98 426.215 348.742C421.799 348.996 416.765 349.082 410.969 348.981Z" fill="#FF6868"/>
<path d="M109.068 171.227C111.296 190.769 112.734 208.564 114.302 228.301C114.407 229.63 113.473 230.67 112.183 230.658C94.4609 230.528 76.7389 230.35 59.0174 230.126C57.5518 230.119 56.1721 228.817 56.0548 227.328C55.9686 226.21 55.8905 225.09 55.8203 223.971C54.1671 197.937 68.9252 165.591 99.1371 167.885C101.547 167.921 103.953 168.075 106.348 168.346C107.712 168.499 108.904 169.753 109.072 171.231L109.068 171.227ZM183.836 174.791C184.594 193.923 184.715 211.362 184.825 230.717C184.829 232.018 183.848 233.042 182.601 233.03C165.434 232.911 148.266 232.745 131.1 232.534C129.681 232.526 128.438 231.252 128.431 229.79C128.431 228.919 128.431 227.828 128.446 226.499C128.731 200.978 145.362 169.3 174.448 171.524C176.656 171.551 178.97 171.7 181.401 171.973C182.71 172.118 183.777 173.349 183.832 174.787L183.836 174.791ZM256.235 174.791C256.997 193.923 257.118 211.362 257.224 230.717C257.232 232.018 256.251 233.042 255.004 233.03C237.837 232.911 220.67 232.745 203.503 232.534C202.08 232.526 200.838 231.252 200.834 229.79C200.834 228.919 200.834 227.828 200.849 226.499C201.135 200.978 217.765 169.3 246.851 171.524C249.055 171.551 251.373 171.7 253.804 171.973C255.11 172.118 256.176 173.353 256.235 174.791ZM365.807 180.783C366.077 202.905 365.291 228.133 365.713 250.485C365.748 252.361 367.366 253.815 369.27 253.729C388.831 252.803 406.814 252.803 423.089 252.877C423.594 252.886 424.095 252.779 424.553 252.564C425.011 252.35 425.415 252.035 425.733 251.641C426.051 251.248 426.275 250.787 426.388 250.295C426.502 249.802 426.501 249.29 426.387 248.797C421.04 226.304 416.006 195.936 385.099 182.202C379.768 180.177 373.823 179.102 367.21 179.329C366.832 179.339 366.473 179.497 366.21 179.769C365.947 180.041 365.805 180.405 365.807 180.783ZM438.581 281.397C438.894 271.118 446.215 269.085 455.857 270.449C457.568 270.692 459.265 271.219 460.781 271.989C471.627 277.485 469.251 285.544 461.387 290.175C453.195 295.002 441.415 291.953 438.968 283.82C438.708 283.039 438.58 282.22 438.581 281.397Z" fill="#C43838"/>
<path d="M366.275 262.078L376.417 262.699C377.066 262.738 377.597 263.434 377.628 264.231C377.652 265.009 377.187 265.634 376.573 265.646L367.088 265.834C366.548 265.817 366.027 265.628 365.603 265.294C365.179 264.96 364.873 264.498 364.731 263.977C364.457 262.875 365.165 262.007 366.275 262.078Z" fill="#EB8181"/>
<path d="M142.476 355.054C144.102 371.45 135.441 386.009 121.996 388.327C107.046 390.906 91.1196 377.75 87.8874 357.857C84.4988 337.009 96.7672 320.492 113.503 321.755C128.417 322.877 140.788 338.014 142.476 355.054Z" fill="white"/>
<path d="M125.683 355.172C126.348 362.199 123.01 368.417 117.788 369.383C111.984 370.457 105.77 364.794 104.476 356.266C103.116 347.327 107.849 340.277 114.357 340.851C120.153 341.359 124.991 347.867 125.683 355.172Z" fill="#E13232"/>
<path d="M397.863 359.522C396.882 374.624 385.802 386.388 371.856 386.306C356.34 386.212 342.36 371.728 342.278 353.202C342.192 333.785 357.227 320.833 373.928 324.69C388.811 328.126 398.883 343.83 397.863 359.522Z" fill="white"/>
<path d="M381.073 356.887C380.682 362.856 376.305 367.507 370.794 367.475C364.661 367.436 359.135 361.71 359.104 354.39C359.068 346.714 365.013 341.594 371.611 343.118C377.497 344.478 381.475 350.685 381.073 356.887Z" fill="#E13232"/>
<path d="M344.153 307.642H292.359V200.415C292.359 197.014 293.029 193.646 294.331 190.504C295.632 187.362 297.54 184.508 299.944 182.103C302.349 179.698 305.204 177.79 308.346 176.489C311.488 175.188 314.856 174.518 318.256 174.518C321.657 174.518 325.025 175.188 328.167 176.489C331.309 177.79 334.164 179.698 336.568 182.103C338.973 184.508 340.881 187.362 342.182 190.504C343.484 193.646 344.153 197.014 344.153 200.415V307.642ZM36.5039 319.629C56.0381 315.208 63.8236 320.711 67.6929 327.195C68.2675 328.161 68.6075 329.212 68.6974 330.26C69.2837 337.123 62.1039 341.566 51.008 343.091C29.7854 346.01 7.31212 333.464 30.6961 321.782C32.5348 320.829 34.4842 320.107 36.5 319.633L36.5039 319.629Z" fill="#C43838"/>
<path d="M385.267 324.28L142.055 334.883C74.2485 337.842 12.019 291.645 8.3764 230.584L8.08718 225.686C4.37811 163.563 62.8634 117.838 133.031 123.967L383.364 145.838C429.725 149.887 465.065 190.37 465.073 236.005V239.608C465.08 284.66 430.538 322.306 385.267 324.28Z" fill="#FAE1E1"/>
<path d="M465.079 236.001V239.624C465.079 284.676 430.529 322.286 385.27 324.295L142.05 334.891C102.693 336.626 65.2111 321.751 39.9629 297.046L374.991 293.04C420.289 292.344 455.934 255.656 457.223 210.643L457.302 207.02C457.38 204.44 457.341 201.857 457.145 199.274C462.365 210.815 465.07 223.334 465.079 236.001Z" fill="#F8C8C8"/>
<path d="M410.969 348.981C297.836 344.443 187.291 347.898 74.991 347.898C62.7108 347.898 45.1621 344.443 45.1621 328.888C46.9209 320.25 53.9365 315.064 62.7108 313.332C178.782 303.249 291.532 309.518 405.415 310.116C414.142 310.163 422.87 310.866 431.429 312.558L431.589 312.59C437.034 313.672 442.443 315.048 447.809 316.772C452.921 319.367 456.533 323.037 456.802 327.551C457.373 337.189 456.994 346.98 426.215 348.742C421.799 348.996 416.765 349.082 410.969 348.981Z" fill="#FF6868"/>
<path d="M109.068 171.227C111.296 190.769 112.734 208.564 114.302 228.301C114.407 229.63 113.473 230.67 112.183 230.658C94.4609 230.528 76.7389 230.35 59.0174 230.126C57.5518 230.119 56.1721 228.817 56.0548 227.328C55.9686 226.21 55.8905 225.09 55.8203 223.971C54.1671 197.937 68.9252 165.591 99.1371 167.885C101.547 167.921 103.953 168.075 106.348 168.346C107.712 168.499 108.904 169.753 109.072 171.231L109.068 171.227ZM183.836 174.791C184.594 193.923 184.715 211.362 184.825 230.717C184.829 232.018 183.848 233.042 182.601 233.03C165.434 232.911 148.266 232.745 131.1 232.534C129.681 232.526 128.438 231.252 128.431 229.79C128.431 228.919 128.431 227.828 128.446 226.499C128.731 200.978 145.362 169.3 174.448 171.524C176.656 171.551 178.97 171.7 181.401 171.973C182.71 172.118 183.777 173.349 183.832 174.787L183.836 174.791ZM256.235 174.791C256.997 193.923 257.118 211.362 257.224 230.717C257.232 232.018 256.251 233.042 255.004 233.03C237.837 232.911 220.67 232.745 203.503 232.534C202.08 232.526 200.838 231.252 200.834 229.79C200.834 228.919 200.834 227.828 200.849 226.499C201.135 200.978 217.765 169.3 246.851 171.524C249.055 171.551 251.373 171.7 253.804 171.973C255.11 172.118 256.176 173.353 256.235 174.791ZM365.807 180.783C366.077 202.905 365.291 228.133 365.713 250.485C365.748 252.361 367.366 253.815 369.27 253.729C388.831 252.803 406.814 252.803 423.089 252.877C423.594 252.886 424.095 252.779 424.553 252.564C425.011 252.35 425.415 252.035 425.733 251.641C426.051 251.248 426.275 250.787 426.388 250.295C426.502 249.802 426.501 249.29 426.387 248.797C421.04 226.304 416.006 195.936 385.099 182.202C379.768 180.177 373.823 179.102 367.21 179.329C366.832 179.339 366.473 179.497 366.21 179.769C365.947 180.041 365.805 180.405 365.807 180.783ZM438.581 281.397C438.894 271.118 446.215 269.085 455.857 270.449C457.568 270.692 459.265 271.219 460.781 271.989C471.627 277.485 469.251 285.544 461.387 290.175C453.195 295.002 441.415 291.953 438.968 283.82C438.708 283.039 438.58 282.22 438.581 281.397Z" fill="#C43838"/>
<path d="M366.275 262.078L376.417 262.699C377.066 262.738 377.597 263.434 377.628 264.231C377.652 265.009 377.187 265.634 376.573 265.646L367.088 265.834C366.548 265.817 366.027 265.628 365.603 265.294C365.179 264.96 364.873 264.498 364.731 263.977C364.457 262.875 365.165 262.007 366.275 262.078Z" fill="#EB8181"/>
<path d="M142.476 355.054C144.102 371.45 135.441 386.009 121.996 388.327C107.046 390.906 91.1196 377.75 87.8874 357.857C84.4988 337.009 96.7672 320.492 113.503 321.755C128.417 322.877 140.788 338.014 142.476 355.054Z" fill="white"/>
<path d="M125.683 355.172C126.348 362.199 123.01 368.417 117.788 369.383C111.984 370.457 105.77 364.794 104.476 356.266C103.116 347.327 107.849 340.277 114.357 340.851C120.153 341.359 124.991 347.867 125.683 355.172Z" fill="#E13232"/>
<path d="M397.863 359.522C396.882 374.624 385.802 386.388 371.856 386.306C356.34 386.212 342.36 371.728 342.278 353.202C342.192 333.785 357.227 320.833 373.928 324.69C388.811 328.126 398.883 343.83 397.863 359.522Z" fill="white"/>
<path d="M381.073 356.887C380.682 362.856 376.305 367.507 370.794 367.475C364.661 367.436 359.135 361.71 359.104 354.39C359.068 346.714 365.013 341.594 371.611 343.118C377.497 344.478 381.475 350.685 381.073 356.887Z" fill="#E13232"/>
<path d="M344.153 307.642H292.359V200.415C292.359 197.014 293.029 193.646 294.331 190.504C295.632 187.362 297.54 184.508 299.944 182.103C302.349 179.698 305.204 177.79 308.346 176.489C311.488 175.188 314.856 174.518 318.256 174.518C321.657 174.518 325.025 175.188 328.167 176.489C331.309 177.79 334.164 179.698 336.568 182.103C338.973 184.508 340.881 187.362 342.182 190.504C343.484 193.646 344.153 197.014 344.153 200.415V307.642ZM36.5039 319.629C56.0381 315.208 63.8236 320.711 67.6929 327.195C68.2675 328.161 68.6075 329.212 68.6974 330.26C69.2837 337.123 62.1039 341.566 51.008 343.091C29.7854 346.01 7.31212 333.464 30.6961 321.782C32.5348 320.829 34.4842 320.107 36.5 319.633L36.5039 319.629Z" fill="#C43838"/>
<path d="M385.267 324.28L142.055 334.883C74.2485 337.842 12.019 291.645 8.3764 230.584L8.08718 225.686C4.37811 163.563 62.8634 117.838 133.031 123.967L383.364 145.838C429.725 149.887 465.065 190.37 465.073 236.005V239.608C465.08 284.66 430.538 322.306 385.267 324.28Z" fill="#FAE1E1"/>
<path d="M465.079 236.001V239.624C465.079 284.676 430.529 322.286 385.27 324.295L142.05 334.891C102.693 336.626 65.2111 321.751 39.9629 297.046L374.991 293.04C420.289 292.344 455.934 255.656 457.223 210.643L457.302 207.02C457.38 204.44 457.341 201.857 457.145 199.274C462.365 210.815 465.07 223.334 465.079 236.001Z" fill="#F8C8C8"/>
<path d="M410.969 348.981C297.836 344.443 187.291 347.898 74.991 347.898C62.7108 347.898 45.1621 344.443 45.1621 328.888C46.9209 320.25 53.9365 315.064 62.7108 313.332C178.782 303.249 291.532 309.518 405.415 310.116C414.142 310.163 422.87 310.866 431.429 312.558L431.589 312.59C437.034 313.672 442.443 315.048 447.809 316.772C452.921 319.367 456.533 323.037 456.802 327.551C457.373 337.189 456.994 346.98 426.215 348.742C421.799 348.996 416.765 349.082 410.969 348.981Z" fill="#FF6868"/>
<path d="M109.068 171.227C111.296 190.769 112.734 208.564 114.302 228.301C114.407 229.63 113.473 230.67 112.183 230.658C94.4609 230.528 76.7389 230.35 59.0174 230.126C57.5518 230.119 56.1721 228.817 56.0548 227.328C55.9686 226.21 55.8905 225.09 55.8203 223.971C54.1671 197.937 68.9252 165.591 99.1371 167.885C101.547 167.921 103.953 168.075 106.348 168.346C107.712 168.499 108.904 169.753 109.072 171.231L109.068 171.227ZM183.836 174.791C184.594 193.923 184.715 211.362 184.825 230.717C184.829 232.018 183.848 233.042 182.601 233.03C165.434 232.911 148.266 232.745 131.1 232.534C129.681 232.526 128.438 231.252 128.431 229.79C128.431 228.919 128.431 227.828 128.446 226.499C128.731 200.978 145.362 169.3 174.448 171.524C176.656 171.551 178.97 171.7 181.401 171.973C182.71 172.118 183.777 173.349 183.832 174.787L183.836 174.791ZM256.235 174.791C256.997 193.923 257.118 211.362 257.224 230.717C257.232 232.018 256.251 233.042 255.004 233.03C237.837 232.911 220.67 232.745 203.503 232.534C202.08 232.526 200.838 231.252 200.834 229.79C200.834 228.919 200.834 227.828 200.849 226.499C201.135 200.978 217.765 169.3 246.851 171.524C249.055 171.551 251.373 171.7 253.804 171.973C255.11 172.118 256.176 173.353 256.235 174.791ZM365.807 180.783C366.077 202.905 365.291 228.133 365.713 250.485C365.748 252.361 367.366 253.815 369.27 253.729C388.831 252.803 406.814 252.803 423.089 252.877C423.594 252.886 424.095 252.779 424.553 252.564C425.011 252.35 425.415 252.035 425.733 251.641C426.051 251.248 426.275 250.787 426.388 250.295C426.502 249.802 426.501 249.29 426.387 248.797C421.04 226.304 416.006 195.936 385.099 182.202C379.768 180.177 373.823 179.102 367.21 179.329C366.832 179.339 366.473 179.497 366.21 179.769C365.947 180.041 365.805 180.405 365.807 180.783ZM438.581 281.397C438.894 271.118 446.215 269.085 455.857 270.449C457.568 270.692 459.265 271.219 460.781 271.989C471.627 277.485 469.251 285.544 461.387 290.175C453.195 295.002 441.415 291.953 438.968 283.82C438.708 283.039 438.58 282.22 438.581 281.397Z" fill="#C43838"/>
<path d="M366.275 262.078L376.417 262.699C377.066 262.738 377.597 263.434 377.628 264.231C377.652 265.009 377.187 265.634 376.573 265.646L367.088 265.834C366.548 265.817 366.027 265.628 365.603 265.294C365.179 264.96 364.873 264.498 364.731 263.977C364.457 262.875 365.165 262.007 366.275 262.078Z" fill="#EB8181"/>
<path d="M142.476 355.054C144.102 371.45 135.441 386.009 121.996 388.327C107.046 390.906 91.1196 377.75 87.8874 357.857C84.4988 337.009 96.7672 320.492 113.503 321.755C128.417 322.877 140.788 338.014 142.476 355.054Z" fill="white"/>
<path d="M125.683 355.172C126.348 362.199 123.01 368.417 117.788 369.383C111.984 370.457 105.77 364.794 104.476 356.266C103.116 347.327 107.849 340.277 114.357 340.851C120.153 341.359 124.991 347.867 125.683 355.172Z" fill="#E13232"/>
<path d="M397.863 359.522C396.882 374.624 385.802 386.388 371.856 386.306C356.34 386.212 342.36 371.728 342.278 353.202C342.192 333.785 357.227 320.833 373.928 324.69C388.811 328.126 398.883 343.83 397.863 359.522Z" fill="white"/>
<path d="M381.073 356.887C380.682 362.856 376.305 367.507 370.794 367.475C364.661 367.436 359.135 361.71 359.104 354.39C359.068 346.714 365.013 341.594 371.611 343.118C377.497 344.478 381.475 350.685 381.073 356.887Z" fill="#E13232"/>
<path d="M344.153 307.642H292.359V200.415C292.359 197.014 293.029 193.646 294.331 190.504C295.632 187.362 297.54 184.508 299.944 182.103C302.349 179.698 305.204 177.79 308.346 176.489C311.488 175.188 314.856 174.518 318.256 174.518C321.657 174.518 325.025 175.188 328.167 176.489C331.309 177.79 334.164 179.698 336.568 182.103C338.973 184.508 340.881 187.362 342.182 190.504C343.484 193.646 344.153 197.014 344.153 200.415V307.642ZM36.5039 319.629C56.0381 315.208 63.8236 320.711 67.6929 327.195C68.2675 328.161 68.6075 329.212 68.6974 330.26C69.2837 337.123 62.1039 341.566 51.008 343.091C29.7854 346.01 7.31212 333.464 30.6961 321.782C32.5348 320.829 34.4842 320.107 36.5 319.633L36.5039 319.629Z" fill="#C43838"/>
<path d="M385.267 324.28L142.055 334.883C74.2485 337.842 12.019 291.645 8.3764 230.584L8.08718 225.686C4.37811 163.563 62.8634 117.838 133.031 123.967L383.364 145.838C429.725 149.887 465.065 190.37 465.073 236.005V239.608C465.08 284.66 430.538 322.306 385.267 324.28Z" fill="#FAE1E1"/>
<path d="M465.079 236.001V239.624C465.079 284.676 430.529 322.286 385.27 324.295L142.05 334.891C102.693 336.626 65.2111 321.751 39.9629 297.046L374.991 293.04C420.289 292.344 455.934 255.656 457.223 210.643L457.302 207.02C457.38 204.44 457.341 201.857 457.145 199.274C462.365 210.815 465.07 223.334 465.079 236.001Z" fill="#F8C8C8"/>
<path d="M410.969 348.981C297.836 344.443 187.291 347.898 74.991 347.898C62.7108 347.898 45.1621 344.443 45.1621 328.888C46.9209 320.25 53.9365 315.064 62.7108 313.332C178.782 303.249 291.532 309.518 405.415 310.116C414.142 310.163 422.87 310.866 431.429 312.558L431.589 312.59C437.034 313.672 442.443 315.048 447.809 316.772C452.921 319.367 456.533 323.037 456.802 327.551C457.373 337.189 456.994 346.98 426.215 348.742C421.799 348.996 416.765 349.082 410.969 348.981Z" fill="#FF6868"/>
<path d="M109.068 171.227C111.296 190.769 112.734 208.564 114.302 228.301C114.407 229.63 113.473 230.67 112.183 230.658C94.4609 230.528 76.7389 230.35 59.0174 230.126C57.5518 230.119 56.1721 228.817 56.0548 227.328C55.9686 226.21 55.8905 225.09 55.8203 223.971C54.1671 197.937 68.9252 165.591 99.1371 167.885C101.547 167.921 103.953 168.075 106.348 168.346C107.712 168.499 108.904 169.753 109.072 171.231L109.068 171.227ZM183.836 174.791C184.594 193.923 184.715 211.362 184.825 230.717C184.829 232.018 183.848 233.042 182.601 233.03C165.434 232.911 148.266 232.745 131.1 232.534C129.681 232.526 128.438 231.252 128.431 229.79C128.431 228.919 128.431 227.828 128.446 226.499C128.731 200.978 145.362 169.3 174.448 171.524C176.656 171.551 178.97 171.7 181.401 171.973C182.71 172.118 183.777 173.349 183.832 174.787L183.836 174.791ZM256.235 174.791C256.997 193.923 257.118 211.362 257.224 230.717C257.232 232.018 256.251 233.042 255.004 233.03C237.837 232.911 220.67 232.745 203.503 232.534C202.08 232.526 200.838 231.252 200.834 229.79C200.834 228.919 200.834 227.828 200.849 226.499C201.135 200.978 217.765 169.3 246.851 171.524C249.055 171.551 251.373 171.7 253.804 171.973C255.11 172.118 256.176 173.353 256.235 174.791ZM365.807 180.783C366.077 202.905 365.291 228.133 365.713 250.485C365.748 252.361 367.366 253.815 369.27 253.729C388.831 252.803 406.814 252.803 423.089 252.877C423.594 252.886 424.095 252.779 424.553 252.564C425.011 252.35 425.415 252.035 425.733 251.641C426.051 251.248 426.275 250.787 426.388 250.295C426.502 249.802 426.501 249.29 426.387 248.797C421.04 226.304 416.006 195.936 385.099 182.202C379.768 180.177 373.823 179.102 367.21 179.329C366.832 179.339 366.473 179.497 366.21 179.769C365.947 180.041 365.805 180.405 365.807 180.783ZM438.581 281.397C438.894 271.118 446.215 269.085 455.857 270.449C457.568 270.692 459.265 271.219 460.781 271.989C471.627 277.485 469.251 285.544 461.387 290.175C453.195 295.002 441.415 291.953 438.968 283.82C438.708 283.039 438.58 282.22 438.581 281.397Z" fill="#C43838"/>
<path d="M366.275 262.078L376.417 262.699C377.066 262.738 377.597 263.434 377.628 264.231C377.652 265.009 377.187 265.634 376.573 265.646L367.088 265.834C366.548 265.817 366.027 265.628 365.603 265.294C365.179 264.96 364.873 264.498 364.731 263.977C364.457 262.875 365.165 262.007 366.275 262.078Z" fill="#EB8181"/>
<path d="M142.476 355.054C144.102 371.45 135.441 386.009 121.996 388.327C107.046 390.906 91.1196 377.75 87.8874 357.857C84.4988 337.009 96.7672 320.492 113.503 321.755C128.417 322.877 140.788 338.014 142.476 355.054Z" fill="white"/>
<path d="M125.683 355.172C126.348 362.199 123.01 368.417 117.788 369.383C111.984 370.457 105.77 364.794 104.476 356.266C103.116 347.327 107.849 340.277 114.357 340.851C120.153 341.359 124.991 347.867 125.683 355.172Z" fill="#E13232"/>
<path d="M397.863 359.522C396.882 374.624 385.802 386.388 371.856 386.306C356.34 386.212 342.36 371.728 342.278 353.202C342.192 333.785 357.227 320.833 373.928 324.69C388.811 328.126 398.883 343.83 397.863 359.522Z" fill="white"/>
<path d="M381.073 356.887C380.682 362.856 376.305 367.507 370.794 367.475C364.661 367.436 359.135 361.71 359.104 354.39C359.068 346.714 365.013 341.594 371.611 343.118C377.497 344.478 381.475 350.685 381.073 356.887Z" fill="#E13232"/>
<path d="M344.153 307.642H292.359V200.415C292.359 197.014 293.029 193.646 294.331 190.504C295.632 187.362 297.54 184.508 299.944 182.103C302.349 179.698 305.204 177.79 308.346 176.489C311.488 175.188 314.856 174.518 318.256 174.518C321.657 174.518 325.025 175.188 328.167 176.489C331.309 177.79 334.164 179.698 336.568 182.103C338.973 184.508 340.881 187.362 342.182 190.504C343.484 193.646 344.153 197.014 344.153 200.415V307.642ZM36.5039 319.629C56.0381 315.208 63.8236 320.711 67.6929 327.195C68.2675 328.161 68.6075 329.212 68.6974 330.26C69.2837 337.123 62.1039 341.566 51.008 343.091C29.7854 346.01 7.31212 333.464 30.6961 321.782C32.5348 320.829 34.4842 320.107 36.5 319.633L36.5039 319.629Z" fill="#C43838"/>
<path d="M385.267 324.28L142.055 334.883C74.2485 337.842 12.019 291.645 8.3764 230.584L8.08718 225.686C4.37811 163.563 62.8634 117.838 133.031 123.967L383.364 145.838C429.725 149.887 465.065 190.37 465.073 236.005V239.608C465.08 284.66 430.538 322.306 385.267 324.28Z" fill="#FAE1E1"/>
<path d="M465.079 236.001V239.624C465.079 284.676 430.529 322.286 385.27 324.295L142.05 334.891C102.693 336.626 65.2111 321.751 39.9629 297.046L374.991 293.04C420.289 292.344 455.934 255.656 457.223 210.643L457.302 207.02C457.38 204.44 457.341 201.857 457.145 199.274C462.365 210.815 465.07 223.334 465.079 236.001Z" fill="#F8C8C8"/>
<path d="M410.969 348.981C297.836 344.443 187.291 347.898 74.991 347.898C62.7108 347.898 45.1621 344.443 45.1621 328.888C46.9209 320.25 53.9365 315.064 62.7108 313.332C178.782 303.249 291.532 309.518 405.415 310.116C414.142 310.163 422.87 310.866 431.429 312.558L431.589 312.59C437.034 313.672 442.443 315.048 447.809 316.772C452.921 319.367 456.533 323.037 456.802 327.551C457.373 337.189 456.994 346.98 426.215 348.742C421.799 348.996 416.765 349.082 410.969 348.981Z" fill="#FF6868"/>
<path d="M109.068 171.227C111.296 190.769 112.734 208.564 114.302 228.301C114.407 229.63 113.473 230.67 112.183 230.658C94.4609 230.528 76.7389 230.35 59.0174 230.126C57.5518 230.119 56.1721 228.817 56.0548 227.328C55.9686 226.21 55.8905 225.09 55.8203 223.971C54.1671 197.937 68.9252 165.591 99.1371 167.885C101.547 167.921 103.953 168.075 106.348 168.346C107.712 168.499 108.904 169.753 109.072 171.231L109.068 171.227ZM183.836 174.791C184.594 193.923 184.715 211.362 184.825 230.717C184.829 232.018 183.848 233.042 182.601 233.03C165.434 232.911 148.266 232.745 131.1 232.534C129.681 232.526 128.438 231.252 128.431 229.79C128.431 228.919 128.431 227.828 128.446 226.499C128.731 200.978 145.362 169.3 174.448 171.524C176.656 171.551 178.97 171.7 181.401 171.973C182.71 172.118 183.777 173.349 183.832 174.787L183.836 174.791ZM256.235 174.791C256.997 193.923 257.118 211.362 257.224 230.717C257.232 232.018 256.251 233.042 255.004 233.03C237.837 232.911 220.67 232.745 203.503 232.534C202.08 232.526 200.838 231.252 200.834 229.79C200.834 228.919 200.834 227.828 200.849 226.499C201.135 200.978 217.765 169.3 246.851 171.524C249.055 171.551 251.373 171.7 253.804 171.973C255.11 172.118 256.176 173.353 256.235 174.791ZM365.807 180.783C366.077 202.905 365.291 228.133 365.713 250.485C365.748 252.361 367.366 253.815 369.27 253.729C388.831 252.803 406.814 252.803 423.089 252.877C423.594 252.886 424.095 252.779 424.553 252.564C425.011 252.35 425.415 252.035 425.733 251.641C426.051 251.248 426.275 250.787 426.388 250.295C426.502 249.802 426.501 249.29 426.387 248.797C421.04 226.304 416.006 195.936 385.099 182.202C379.768 180.177 373.823 179.102 367.21 179.329C366.832 179.339 366.473 179.497 366.21 179.769C365.947 180.041 365.805 180.405 365.807 180.783ZM438.581 281.397C438.894 271.118 446.215 269.085 455.857 270.449C457.568 270.692 459.265 271.219 460.781 271.989C471.627 277.485 469.251 285.544 461.387 290.175C453.195 295.002 441.415 291.953 438.968 283.82C438.708 283.039 438.58 282.22 438.581 281.397Z" fill="#C43838"/>
<path d="M366.275 262.078L376.417 262.699C377.066 262.738 377.597 263.434 377.628 264.231C377.652 265.009 377.187 265.634 376.573 265.646L367.088 265.834C366.548 265.817 366.027 265.628 365.603 265.294C365.179 264.96 364.873 264.498 364.731 263.977C364.457 262.875 365.165 262.007 366.275 262.078Z" fill="#EB8181"/>
<path d="M142.476 355.054C144.102 371.45 135.441 386.009 121.996 388.327C107.046 390.906 91.1196 377.75 87.8874 357.857C84.4988 337.009 96.7672 320.492 113.503 321.755C128.417 322.877 140.788 338.014 142.476 355.054Z" fill="white"/>
<path d="M125.683 355.172C126.348 362.199 123.01 368.417 117.788 369.383C111.984 370.457 105.77 364.794 104.476 356.266C103.116 347.327 107.849 340.277 114.357 340.851C120.153 341.359 124.991 347.867 125.683 355.172Z" fill="#E13232"/>
<path d="M397.863 359.522C396.882 374.624 385.802 386.388 371.856 386.306C356.34 386.212 342.36 371.728 342.278 353.202C342.192 333.785 357.227 320.833 373.928 324.69C388.811 328.126 398.883 343.83 397.863 359.522Z" fill="white"/>
<path d="M381.073 356.887C380.682 362.856 376.305 367.507 370.794 367.475C364.661 367.436 359.135 361.71 359.104 354.39C359.068 346.714 365.013 341.594 371.611 343.118C377.497 344.478 381.475 350.685 381.073 356.887Z" fill="#E13232"/>
<path d="M344.153 307.642H292.359V200.415C292.359 197.014 293.029 193.646 294.331 190.504C295.632 187.362 297.54 184.508 299.944 182.103C302.349 179.698 305.204 177.79 308.346 176.489C311.488 175.188 314.856 174.518 318.256 174.518C321.657 174.518 325.025 175.188 328.167 176.489C331.309 177.79 334.164 179.698 336.568 182.103C338.973 184.508 340.881 187.362 342.182 190.504C343.484 193.646 344.153 197.014 344.153 200.415V307.642Z" fill="#C43838"/>
<path d="M505.242 283.214L481.139 284.223C480.898 284.238 480.672 284.345 480.507 284.521C480.342 284.697 480.25 284.929 480.25 285.17C480.25 285.412 480.342 285.644 480.507 285.82C480.672 285.996 480.898 286.103 481.139 286.118L505.242 287.123H505.406C505.663 287.112 505.915 287.051 506.148 286.942C506.381 286.834 506.59 286.681 506.764 286.492C506.938 286.303 507.073 286.082 507.161 285.84C507.249 285.599 507.289 285.343 507.278 285.086C507.267 284.83 507.206 284.578 507.098 284.345C506.99 284.112 506.837 283.902 506.648 283.728C506.459 283.555 506.237 283.42 505.996 283.332C505.755 283.243 505.498 283.203 505.242 283.214ZM478.356 296.608C478.192 296.434 477.969 296.329 477.731 296.312C477.493 296.295 477.257 296.369 477.071 296.518C476.884 296.668 476.761 296.882 476.726 297.118C476.69 297.354 476.745 297.595 476.879 297.792L485.927 310.702C486.079 310.923 486.276 311.11 486.504 311.252C486.733 311.394 486.988 311.487 487.254 311.526C487.52 311.565 487.791 311.548 488.05 311.478C488.31 311.407 488.552 311.284 488.761 311.116C488.971 310.948 489.144 310.739 489.269 310.501C489.395 310.263 489.47 310.002 489.49 309.734C489.51 309.466 489.474 309.197 489.386 308.943C489.297 308.689 489.157 308.457 488.975 308.259L478.356 296.608ZM106.644 165.442C104.025 165.13 101.524 164.973 99.3353 164.973C68.6543 162.675 50.9845 194.232 52.9035 224.147C52.9817 225.514 53.0598 226.648 53.138 227.547C53.3725 230.556 55.9911 233.058 59.1179 233.058H60.2122C77.331 233.292 91.5966 233.409 112.155 233.605H112.194C113.64 233.605 114.93 233.019 115.868 232.002C116.845 230.986 117.353 229.54 117.236 228.055C115.79 209.881 114.265 191.082 111.998 170.914C111.647 168.1 109.38 165.716 106.644 165.442ZM60.2904 227.195L58.9615 227.117C58.9224 226.218 58.8052 225.124 58.727 223.795C57.1754 199.309 70.4327 170.719 96.2085 170.719C97.1465 170.719 98.1237 170.758 99.1008 170.836C101.25 170.836 103.595 170.992 105.94 171.227C106.019 171.266 106.136 171.422 106.136 171.579C108.403 191.355 109.888 209.842 111.334 227.742C91.2449 227.547 77.1356 227.43 60.2904 227.195ZM181.724 169.077C179.223 168.765 176.8 168.608 174.689 168.608C144.97 166.369 125.834 197.421 125.522 226.452C125.482 227.82 125.482 228.915 125.482 229.814C125.522 232.862 128.062 235.442 131.071 235.481H132.283C148.816 235.676 162.651 235.794 182.584 235.95H182.623C183.991 235.95 185.242 235.442 186.219 234.465C187.196 233.488 187.743 232.12 187.743 230.713C187.665 212.89 187.548 194.482 186.766 174.666C186.649 171.774 184.46 169.351 181.724 169.077ZM132.322 229.618L131.345 229.775C131.345 228.915 131.345 227.86 131.384 226.531C131.626 201.212 147.924 172.407 174.416 174.471C176.526 174.471 178.754 174.627 180.864 174.823C180.864 174.823 180.903 174.862 180.903 174.901C181.685 194.404 181.802 212.539 181.881 230.087C162.339 229.931 148.698 229.814 132.322 229.618ZM259.15 174.666C259.032 171.774 256.883 169.351 254.147 169.077C239.826 167.287 228.312 169.226 217.603 179.083C205.839 189.831 198.1 208.435 197.905 226.452V229.814C197.905 232.862 200.485 235.442 203.455 235.481H204.667C221.238 235.676 235.035 235.794 254.968 235.95H255.007C256.375 235.95 257.664 235.442 258.602 234.465C259.619 233.488 260.166 232.12 260.166 230.713C260.095 211.053 259.892 194.13 259.15 174.666ZM204.706 229.618L203.768 229.775V226.531C204.072 200.931 220.456 172.419 246.799 174.471C247.217 174.471 253.037 174.608 253.326 174.901C254.03 193.153 254.186 209.334 254.303 230.087C234.761 229.931 221.082 229.814 204.706 229.618ZM428.149 243.532C422.951 220.981 416.463 192.918 386.133 179.474C380.193 177.207 373.783 176.191 367.1 176.386C364.794 176.464 362.878 178.418 362.878 180.724V180.802C362.996 191.042 362.878 202.181 362.8 212.969C362.683 225.514 362.566 238.529 362.8 250.528C362.8 252.209 363.504 253.772 364.754 254.945C365.927 256.039 367.49 256.664 369.093 256.664H369.405C388.83 255.726 406.574 255.726 423.068 255.805H423.107C425.061 255.805 426.859 254.945 428.071 253.42C429.243 251.935 429.673 249.981 429.243 248.105L428.149 243.532ZM423.107 249.942C406.496 249.864 388.674 249.864 369.132 250.802C368.819 250.802 368.819 250.724 368.663 250.45C368.428 238.49 368.546 225.554 368.663 213.008C368.741 202.729 368.858 192.098 368.741 182.249C374.174 182.209 379.255 183.108 383.906 184.867C411.421 197.1 417.518 223.56 422.442 244.861L423.459 249.786C423.42 249.864 423.302 249.942 423.107 249.942Z" fill="black"/>
<path d="M462.817 269.757C466.178 260.338 468.015 250.216 468.015 239.624V235.989C467.976 187.955 430.924 147.034 383.633 142.93L133.3 121.043C8.39932 110.076 -40.6237 246.62 54.8584 312.828C53.4514 313.453 52.1616 314.235 50.95 315.134C43.5241 315.501 36.7157 315.486 29.3757 319.16C17.9632 324.866 16.9861 330.729 18.1977 334.637C21.4104 344.9 42.8088 348.226 52.3571 345.854C63.7969 352.459 79.0592 350.466 84.3668 350.818C84.3668 364.098 90.2685 377.961 101.329 385.876C106.606 389.628 112.468 391.582 118.214 391.582C119.66 391.582 121.106 391.465 122.513 391.23C140.003 388.17 148.621 368.062 144.712 350.505C155.382 350.388 165.974 350.31 176.449 350.192C229.837 349.684 284.516 349.176 339.468 349.997C337.869 371.556 353.945 389.116 371.829 389.237H371.986C379.646 389.237 386.603 386.071 391.723 380.795C399.216 373.135 402.088 361.968 400.4 351.521C415.49 352.029 445.913 353.788 455.938 342.532C460.355 337.607 459.964 331.432 459.729 327.367C459.331 320.735 452.178 314.868 448.708 314.001C443.783 312.398 438.663 311.069 433.269 309.975C439.018 305.66 444.192 300.63 448.669 295.006C459.983 297.402 471.318 289.065 471.025 280.623C470.946 277.652 469.422 273.353 462.817 269.757ZM23.8258 332.917C22.5985 328.97 31.6347 322.478 45.1265 321.153C40.5224 328.391 41.8044 335.114 46.1036 340.539C34.4566 340.968 24.9592 336.669 23.8258 332.917ZM121.497 385.446C115.947 386.384 110.006 384.86 104.73 381.108C82.7761 365.408 86.5047 324.631 111.726 324.631C142.387 324.631 150.7 380.416 121.497 385.446ZM371.986 383.375H371.869C346.925 383.238 335.903 346.612 354.632 331.667C358.658 328.501 363.274 326.937 368.038 326.937C401.475 326.937 404.425 383.375 371.986 383.375ZM446.675 319.511C449.372 320.879 453.632 323.732 453.867 327.719C454.14 332.136 454.14 335.731 451.561 338.623C443.283 347.996 410.878 345.967 398.993 345.619C388.741 313.516 347.945 312.805 340.406 344.173C285.102 343.314 230.111 343.822 176.41 344.33C165.427 344.447 154.327 344.525 143.149 344.642C131.268 310.104 89.6432 310.295 84.8358 344.955C76.9409 344.838 69.6869 345.502 61.6981 343.392C43.3443 338.561 44.6732 322.064 60.0957 317.01H60.1348C86.6767 308.161 289.538 311.331 317.62 311.851C414.923 313.571 420.88 311.249 446.675 319.511ZM341.227 304.699H295.303V200.423C295.303 187.759 305.582 177.441 318.245 177.441C330.909 177.441 341.227 187.759 341.227 200.423V304.699ZM425.179 308.529C411.855 306.684 409.975 307.513 347.089 306.496V200.423C347.089 184.515 334.152 171.579 318.245 171.579C302.377 171.579 289.44 184.515 289.44 200.423V305.48C215.259 304.23 139.006 303.761 62.1281 310.444C62.0499 310.444 61.9326 310.483 61.8545 310.522C-28.1755 252.65 5.9253 126.358 120.363 126.358C124.467 126.358 128.61 126.515 132.792 126.906L383.086 148.754C427.407 152.623 462.113 190.964 462.152 235.989V239.624C462.152 249.512 460.433 258.97 457.267 267.725C435.536 262.887 428.759 284.734 442.845 292.856C437.76 298.921 431.807 304.202 425.179 308.529ZM446.519 288.166C440.226 285.219 440.406 277.914 443.978 274.878C449.071 270.633 464.92 273.873 465.201 280.818C465.26 284.305 454.969 292.383 446.519 288.166Z" fill="black"/>
<path d="M376.598 259.791L366.437 259.166C365.03 259.049 363.622 259.635 362.724 260.69C361.825 261.784 361.512 263.231 361.903 264.677C362.45 267.022 364.678 268.78 367.062 268.78H367.14L376.637 268.585C377.693 268.546 378.631 268.116 379.373 267.334C380.155 266.514 380.585 265.341 380.546 264.129C380.468 261.824 378.748 259.908 376.598 259.791ZM165.42 381.381L141.313 382.39C141.072 382.405 140.846 382.512 140.681 382.688C140.516 382.864 140.424 383.096 140.424 383.338C140.424 383.579 140.516 383.811 140.681 383.987C140.846 384.163 141.072 384.27 141.313 384.285L165.42 385.29H165.58C166.098 385.269 166.587 385.042 166.938 384.661C167.29 384.279 167.475 383.774 167.454 383.255C167.433 382.737 167.207 382.249 166.825 381.897C166.444 381.546 165.938 381.36 165.42 381.381ZM394.092 382.39C393.852 382.405 393.626 382.512 393.461 382.688C393.295 382.864 393.204 383.096 393.204 383.338C393.204 383.579 393.295 383.811 393.461 383.987C393.626 384.163 393.852 384.27 394.092 384.285L430.206 385.29H430.311C430.568 385.283 430.821 385.225 431.055 385.12C431.29 385.015 431.501 384.865 431.678 384.679C431.854 384.492 431.992 384.273 432.083 384.033C432.175 383.793 432.218 383.538 432.211 383.281C432.109 379.564 427.626 382.226 394.092 382.39ZM490.63 265.091C491.068 264.813 491.378 264.373 491.492 263.866C491.606 263.36 491.513 262.829 491.236 262.39C490.958 261.952 490.517 261.642 490.011 261.528C489.504 261.414 488.973 261.507 488.535 261.784L475.141 270.266C474.931 270.392 474.779 270.595 474.715 270.831C474.651 271.068 474.681 271.32 474.798 271.534C474.916 271.749 475.112 271.91 475.345 271.984C475.579 272.058 475.832 272.039 476.051 271.931L490.415 265.212C490.489 265.177 490.56 265.138 490.63 265.095V265.091ZM102.542 356.563C103.362 361.918 105.981 366.529 109.772 369.226C111.844 370.711 114.11 371.454 116.377 371.454C116.964 371.454 117.55 371.415 118.136 371.298C124.311 370.164 128.415 363.129 127.633 355C125.359 332.839 99.0006 333.965 102.542 356.563ZM117.433 367.467C115.674 367.78 113.798 367.311 112.039 366.06C109.147 363.989 107.036 360.237 106.411 355.977C103.831 338.659 122.154 338.858 123.725 355.351C124.311 361.37 121.536 366.686 117.433 367.467ZM372.065 341.203C364.107 339.366 357.135 345.62 357.135 354.413C357.174 362.504 363.427 369.383 370.775 369.422H370.853C386.311 369.422 387.237 344.814 372.065 341.203ZM370.853 365.513H370.814C358.835 365.423 357.572 344.799 369.29 344.799C381.515 344.799 382.578 365.513 370.853 365.513ZM308.631 266.162C306.404 266.631 304.606 268.741 304.567 270.93L304.488 282.929C304.449 283.789 304.801 284.57 305.387 285.196C306.13 285.899 307.146 286.29 308.241 286.29C310.312 286.29 312.071 284.844 312.227 283.046L313.4 270.266C313.47 269.662 313.397 269.05 313.186 268.479C312.976 267.909 312.634 267.396 312.188 266.983C311.705 266.57 311.129 266.279 310.51 266.136C309.891 265.994 309.246 266.002 308.631 266.162Z" fill="black"/>
</svg>
