<svg width="512" height="512" viewBox="0 0 512 512" fill="none" xmlns="http://www.w3.org/2000/svg">
<g clip-path="url(#clip0_504_324)">
<path fill-rule="evenodd" clip-rule="evenodd" d="M493.449 299.384C493.987 281.414 479.939 272.481 460.298 266.742C448.662 263.343 435.109 260.801 423.502 256.181C413.856 252.346 405.489 247.189 402.264 237.587C399.344 228.87 401.567 220.009 403.382 211.308C405.779 199.802 407.624 188.53 403.368 178.012C399.939 169.558 392.516 162.541 383.945 155.698C373.864 147.65 361.836 139.85 357.536 127.052C355.153 119.963 357.448 112.206 360.673 104.434C364.639 94.9186 370.29 85.4756 374.125 77.0064C381.214 61.3755 381.752 48.4321 368.59 40.7183C340.989 24.5353 269.401 1.20539 188.065 28.6031C64.7461 70.1354 -2.49879 190.534 24.3178 317.862C48.3308 431.928 175.848 528.545 333.188 485.546C450.958 453.369 492.331 336.907 493.449 299.384ZM478.326 298.948C477.295 333.711 438.349 441.123 329.208 470.947C181.702 511.244 61.6373 421.656 39.1206 314.739C13.931 195.11 77.0359 81.9601 192.888 42.9409C268.602 17.4463 335.251 38.7139 360.935 53.7783C363.579 55.3181 364.203 57.5697 363.855 60.2136C363.433 63.424 362.068 66.9541 360.354 70.7456C355.603 81.2195 348.224 93.1751 344.36 104.898C341.28 114.181 340.336 123.391 343.197 131.874C347.628 145.094 358.131 154.551 368.837 163.049C377.292 169.746 386.037 175.542 389.335 183.692C392.473 191.449 390.337 199.744 388.565 208.228C386.211 219.53 384.12 231.079 387.926 242.41C391.877 254.177 400.549 261.978 411.633 267.469C421.294 272.248 432.857 275.226 443.97 278.044C453.849 280.557 463.364 282.867 470.293 286.774C475.131 289.505 478.501 293.065 478.326 298.948ZM301.854 339.696C275.459 339.696 254.002 361.167 254.002 387.606C254.002 414.045 275.459 435.515 301.854 435.515C328.264 435.515 349.72 414.045 349.72 387.606C349.72 361.167 328.264 339.696 301.854 339.696ZM301.854 354.833C319.925 354.833 334.583 369.52 334.583 387.606C334.583 405.692 319.925 420.378 301.854 420.378C283.797 420.378 269.139 405.692 269.139 387.606C269.139 369.52 283.797 354.833 301.854 354.833ZM158.357 252.099C130.03 252.099 107.034 275.11 107.034 303.466C107.034 331.823 130.03 354.833 158.357 354.833C186.67 354.833 209.666 331.823 209.666 303.466C209.666 275.11 186.67 252.099 158.357 252.099ZM158.357 267.221C178.332 267.221 194.544 283.463 194.544 303.466C194.544 323.47 178.332 339.696 158.357 339.696C138.383 339.696 122.171 323.47 122.171 303.466C122.171 283.463 138.383 267.221 158.357 267.221ZM301.97 195.691C275.502 195.691 254.002 217.205 254.002 243.702C254.002 270.199 275.502 291.714 301.97 291.714C328.424 291.714 349.923 270.199 349.923 243.702C349.923 217.205 328.424 195.691 301.97 195.691ZM301.97 210.828C320.085 210.828 334.786 225.558 334.786 243.702C334.786 261.846 320.085 276.577 301.97 276.577C283.841 276.577 269.139 261.846 269.139 243.702C269.139 225.558 283.841 210.828 301.97 210.828ZM198.64 96.3276C172.274 96.3276 150.789 118.03 150.789 144.861C150.789 171.678 172.274 193.382 198.64 193.382C225.021 193.382 246.492 171.678 246.492 144.861C246.492 118.03 225.021 96.3276 198.64 96.3276ZM198.64 111.45C216.741 111.45 231.369 126.456 231.369 144.861C231.369 163.252 216.741 178.259 198.64 178.259C180.554 178.259 165.926 163.252 165.926 144.861C165.926 126.456 180.554 111.45 198.64 111.45Z" fill="#BD55D5"/>
</g>
<defs>
<clipPath id="clip0_504_324">
<rect width="512" height="512" fill="white"/>
</clipPath>
</defs>
</svg>
