<svg width="512" height="512" viewBox="0 0 512 512" fill="none" xmlns="http://www.w3.org/2000/svg">
<g clip-path="url(#clip0_504_52)">
<path d="M220.619 440.89C215.448 444.265 209.412 446.073 203.237 446.098H203.061C196.949 446.038 190.981 444.231 185.861 440.891C185.039 440.339 184.115 439.956 183.143 439.763C182.171 439.57 181.171 439.572 180.2 439.768C179.229 439.964 178.306 440.35 177.486 440.905C176.665 441.459 175.962 442.171 175.417 442.999C174.873 443.826 174.498 444.754 174.314 445.727C174.13 446.7 174.141 447.701 174.346 448.67C174.55 449.639 174.945 450.558 175.507 451.374C176.069 452.19 176.787 452.886 177.619 453.423C185.151 458.383 193.96 461.05 202.978 461.098H203.236C212.339 461.062 221.237 458.397 228.861 453.424C230.523 452.331 231.683 450.623 232.086 448.674C232.488 446.726 232.1 444.698 231.007 443.036C229.914 441.374 228.206 440.214 226.258 439.812C224.31 439.409 222.281 439.797 220.619 440.89ZM158.24 387.657C156.757 387.657 155.307 388.097 154.074 388.921C152.84 389.745 151.879 390.916 151.311 392.287C150.744 393.657 150.595 395.165 150.884 396.62C151.174 398.075 151.888 399.411 152.937 400.46C153.986 401.509 155.322 402.224 156.777 402.513C158.232 402.802 159.74 402.654 161.11 402.086C162.481 401.518 163.652 400.557 164.476 399.324C165.3 398.09 165.74 396.64 165.74 395.157C165.74 393.168 164.95 391.26 163.544 389.854C162.137 388.447 160.229 387.657 158.24 387.657ZM348.642 279.847C327.788 270.553 300.847 269.138 284.962 275.913C268.361 262.798 248.848 253.869 228.071 249.88C207.294 245.891 185.862 246.959 165.584 252.993C165.301 253.06 165.023 253.143 164.749 253.242C149.059 258.046 134.404 265.736 121.536 275.918C105.654 269.14 78.7013 270.553 57.8383 279.846C38.8983 288.28 23.4433 303.856 13.1453 324.888C2.93632 345.74 -1.46468 370.57 0.419323 396.696C0.499505 397.809 0.826816 398.889 1.37742 399.859C1.92802 400.829 2.68805 401.664 3.60215 402.303C4.51625 402.943 5.56141 403.37 6.66149 403.554C7.76157 403.738 8.88889 403.675 9.96132 403.368C24.8137 399.123 39.1504 393.247 52.7093 385.847C58.8073 382.511 65.0693 378.658 71.2743 374.463C71.2061 376.17 71.1711 377.878 71.1693 379.586C71.1693 452.41 130.416 511.656 203.24 511.656C276.064 511.656 335.311 452.41 335.311 379.586C335.311 377.87 335.274 376.163 335.208 374.463C341.408 378.653 347.673 382.506 353.781 385.847C367.336 393.249 381.669 399.125 396.518 403.367C397.591 403.674 398.718 403.737 399.818 403.553C400.918 403.369 401.963 402.942 402.877 402.303C403.791 401.664 404.551 400.829 405.102 399.859C405.653 398.889 405.98 397.808 406.06 396.696C407.943 370.571 403.542 345.74 393.333 324.888C383.035 303.856 367.581 288.281 348.642 279.847ZM203.239 262.513C229.706 262.547 255.383 271.533 276.096 288.009C296.809 304.485 311.34 327.483 317.326 353.264C298.187 358.698 278.034 359.534 258.51 355.704C237.504 351.442 218.887 341.623 204.67 327.308C200.029 322.63 195.873 317.493 192.266 311.978C192.2 311.869 192.124 311.765 192.052 311.658C183.232 297.79 177.569 282.152 175.464 265.851C184.556 263.631 193.881 262.51 203.239 262.513ZM160.972 270.412C163.307 285.887 168.456 300.803 176.165 314.423C151.834 335.348 121.605 348.199 89.6553 351.203C94.24 333.026 103.105 316.209 115.511 302.154C127.917 288.1 143.505 277.217 160.972 270.412ZM45.5133 372.685C35.7451 378.017 25.5361 382.499 14.9993 386.081C14.8453 366.149 18.8093 347.436 26.6193 331.484C35.3493 313.652 48.2553 300.534 63.9413 293.548C78.7843 286.937 96.6323 285.41 108.57 287.625C90.6799 305.994 78.5329 329.18 73.6163 354.345C64.7061 361.131 55.3144 367.261 45.5153 372.685H45.5133ZM203.24 496.657C186.759 496.659 170.464 493.181 155.42 486.45C140.376 479.72 126.923 469.888 115.942 457.599C104.96 445.31 96.697 430.841 91.6936 415.138C86.6903 399.435 85.0592 382.852 86.9073 366.475C122.811 363.989 156.998 350.163 184.537 326.993C187.464 330.822 190.634 334.458 194.028 337.879C210.341 354.304 231.608 365.552 255.528 370.406C264.411 372.199 273.451 373.098 282.513 373.089C295.088 373.069 307.606 371.414 319.753 368.166C320.119 371.925 320.305 375.731 320.311 379.586C320.276 410.624 307.93 440.381 285.983 462.328C264.036 484.275 234.279 496.621 203.241 496.656L203.24 496.657ZM360.978 372.687C351.182 367.266 341.792 361.141 332.882 354.359C327.967 329.189 315.82 305.997 297.929 287.623C309.865 285.41 327.704 286.938 342.538 293.549C358.224 300.534 371.13 313.652 379.86 331.484C387.67 347.436 391.635 366.149 391.48 386.081C380.947 382.501 370.742 378.02 360.978 372.687ZM504.625 89.49C504.617 89.46 504.613 89.43 504.605 89.401C504.511 89.078 504.396 88.7616 504.259 88.454C497.973 70.79 488.039 54.6471 475.103 41.0753C462.167 27.5035 446.519 16.8069 429.177 9.68126C411.834 2.5556 393.186 -0.839513 374.445 -0.283227C355.704 0.273058 337.29 4.76828 320.401 12.91C320.155 13.0024 319.914 13.1075 319.678 13.225C319.454 13.3384 319.238 13.461 319.03 13.593C296.748 24.6616 277.995 41.7254 264.878 62.8665C251.761 84.0077 244.8 108.388 244.778 133.268C244.778 206.941 304.716 266.878 378.388 266.878C452.06 266.878 511.999 206.94 511.999 133.268C512.011 118.366 509.518 103.566 504.625 89.49ZM378.389 14.657C401.537 14.6811 424.174 21.4682 443.516 34.1842C462.859 46.9001 478.065 64.9906 487.264 86.232C460.548 92.143 432.71 90.4574 406.901 81.366C367.826 67.394 344.793 39.796 333.939 23.307C348.058 17.5803 363.153 14.6429 378.389 14.657ZM319.009 30.624C325.585 52.277 321.205 75.871 307.007 92.602C292.433 109.777 272.375 113.949 261.206 114.876C263.973 97.4192 270.597 80.7988 280.596 66.2244C290.595 51.6499 303.717 39.4881 319.008 30.624H319.009ZM378.389 251.878C346.943 251.842 316.795 239.334 294.559 217.098C272.323 194.863 259.815 164.714 259.779 133.268C259.779 132.182 259.794 131.1 259.824 130.023C273.171 129.352 299.237 124.942 318.444 102.307C330.331 88.0934 336.889 70.179 336.987 51.65C354.641 71.4131 376.931 86.4781 401.851 95.49C438.837 108.716 472.338 105.087 492.379 100.455C497.458 118.117 498.364 136.717 495.026 154.789C491.688 172.861 484.197 189.91 473.145 204.592C462.092 219.274 447.779 231.188 431.336 239.394C414.892 247.6 396.767 251.874 378.389 251.878ZM423.389 125.768C421.906 125.768 420.456 126.208 419.223 127.032C417.989 127.856 417.028 129.027 416.46 130.398C415.893 131.768 415.744 133.276 416.033 134.731C416.323 136.186 417.037 137.522 418.086 138.571C419.135 139.62 420.471 140.335 421.926 140.624C423.381 140.913 424.889 140.765 426.259 140.197C427.63 139.629 428.801 138.668 429.625 137.435C430.449 136.201 430.889 134.751 430.889 133.268C430.889 131.279 430.099 129.371 428.693 127.965C427.286 126.558 425.378 125.768 423.389 125.768ZM248.239 387.656C246.756 387.656 245.306 388.096 244.073 388.92C242.839 389.744 241.878 390.915 241.31 392.286C240.743 393.656 240.594 395.164 240.883 396.619C241.173 398.074 241.887 399.41 242.936 400.459C243.985 401.508 245.321 402.223 246.776 402.512C248.231 402.801 249.739 402.653 251.109 402.085C252.48 401.517 253.651 400.556 254.475 399.323C255.299 398.089 255.739 396.639 255.739 395.156C255.739 393.167 254.949 391.259 253.543 389.853C252.136 388.446 250.228 387.656 248.239 387.656ZM395.768 185.89C390.597 189.265 384.561 191.073 378.386 191.098H378.21C372.098 191.038 366.13 189.231 361.01 185.891C360.188 185.339 359.264 184.956 358.292 184.763C357.32 184.57 356.32 184.572 355.349 184.768C354.378 184.964 353.455 185.35 352.635 185.905C351.814 186.459 351.111 187.171 350.566 187.999C350.022 188.826 349.647 189.754 349.463 190.727C349.279 191.7 349.29 192.701 349.495 193.67C349.699 194.639 350.094 195.558 350.656 196.374C351.218 197.19 351.936 197.886 352.768 198.423C360.299 203.383 369.109 206.049 378.126 206.098H378.378C387.484 206.069 396.387 203.404 404.01 198.424C405.672 197.331 406.832 195.623 407.235 193.674C407.637 191.726 407.249 189.698 406.156 188.036C405.063 186.374 403.355 185.214 401.407 184.812C399.459 184.409 397.43 184.797 395.768 185.89ZM333.388 125.767C331.905 125.767 330.455 126.207 329.222 127.031C327.988 127.855 327.027 129.026 326.459 130.397C325.892 131.767 325.743 133.275 326.032 134.73C326.322 136.185 327.036 137.521 328.085 138.57C329.134 139.619 330.47 140.334 331.925 140.623C333.38 140.912 334.888 140.764 336.258 140.196C337.629 139.628 338.8 138.667 339.624 137.434C340.448 136.2 340.888 134.75 340.888 133.267C340.888 131.278 340.098 129.37 338.692 127.964C337.285 126.557 335.377 125.767 333.388 125.767Z" fill="#EB8181"/>
</g>
<defs>
<clipPath id="clip0_504_52">
<rect width="512" height="512" fill="white"/>
</clipPath>
</defs>
</svg>
