<svg width="512" height="512" viewBox="0 0 512 512" fill="none" xmlns="http://www.w3.org/2000/svg">
<path d="M170.83 450.445H157.871C140.481 450.445 126.383 436.347 126.383 418.957V102.528C126.383 85.138 140.481 71.04 157.871 71.04H360.531C377.921 71.04 392.019 85.138 392.019 102.528V115.487C392.019 132.877 377.921 146.975 360.531 146.975H233.803C216.413 146.975 202.315 161.073 202.315 178.463V191.421C202.315 208.812 216.413 222.909 233.803 222.909H284.596C301.986 222.909 316.084 237.007 316.084 254.397V267.356C316.084 284.746 301.986 298.844 284.596 298.844H233.803C216.413 298.844 202.315 312.942 202.315 330.332V418.959C202.318 436.35 188.22 450.445 170.83 450.445Z" fill="#87CEFA"/>
<path d="M218.042 101.929C235.585 101.929 249.806 87.7075 249.806 70.1645C249.806 52.6215 235.585 38.4 218.042 38.4C200.499 38.4 186.277 52.6215 186.277 70.1645C186.277 87.7075 200.499 101.929 218.042 101.929Z" fill="white" stroke="#87CEFA" stroke-width="16.568" stroke-miterlimit="10"/>
<path d="M218.041 88.3738C228.098 88.3738 236.251 80.2212 236.251 70.1645C236.251 60.1078 228.098 51.9552 218.041 51.9552C207.985 51.9552 199.832 60.1078 199.832 70.1645C199.832 80.2212 207.985 88.3738 218.041 88.3738Z" fill="#EB8181"/>
<path d="M300.358 101.929C317.901 101.929 332.123 87.7075 332.123 70.1645C332.123 52.6215 317.901 38.4 300.358 38.4C282.815 38.4 268.594 52.6215 268.594 70.1645C268.594 87.7075 282.815 101.929 300.358 101.929Z" fill="white" stroke="#87CEFA" stroke-width="16.568" stroke-miterlimit="10"/>
<path d="M300.362 88.3738C310.418 88.3738 318.571 80.2212 318.571 70.1645C318.571 60.1078 310.418 51.9552 300.362 51.9552C290.305 51.9552 282.152 60.1078 282.152 70.1645C282.152 80.2212 290.305 88.3738 300.362 88.3738Z" fill="#EB8181"/>
<path d="M186.464 122.076C195.338 122.076 202.533 117.566 202.533 112.003C202.533 106.439 195.338 101.929 186.464 101.929C177.589 101.929 170.395 106.439 170.395 112.003C170.395 117.566 177.589 122.076 186.464 122.076Z" fill="#FC5A5A"/>
<path d="M331.932 122.076C340.807 122.076 348.002 117.566 348.002 112.003C348.002 106.439 340.807 101.929 331.932 101.929C323.058 101.929 315.863 106.439 315.863 112.003C315.863 117.566 323.058 122.076 331.932 122.076Z" fill="#FC5A5A"/>
<path d="M237.672 125.571C259.201 143.8 280.731 125.571 280.731 125.571" stroke="#763434" stroke-width="33.902" stroke-miterlimit="10" stroke-linecap="round"/>
<path d="M180.098 445.148L186.185 468.982" stroke="#87CEFA" stroke-width="15.992" stroke-miterlimit="10" stroke-linecap="round"/>
<path d="M186.183 473.29C188.563 473.29 190.492 471.361 190.492 468.982C190.492 466.602 188.563 464.673 186.183 464.673C183.804 464.673 181.875 466.602 181.875 468.982C181.875 471.361 183.804 473.29 186.183 473.29Z" fill="#87CEFA"/>
<path d="M184.117 441.623L197.222 462.441" stroke="#87CEFA" stroke-width="15.992" stroke-miterlimit="10" stroke-linecap="round"/>
<path d="M197.223 466.749C199.602 466.749 201.531 464.82 201.531 462.441C201.531 460.061 199.602 458.132 197.223 458.132C194.843 458.132 192.914 460.061 192.914 462.441C192.914 464.82 194.843 466.749 197.223 466.749Z" fill="#87CEFA"/>
<path d="M188.762 439.355L207.767 454.971" stroke="#87CEFA" stroke-width="15.992" stroke-miterlimit="10" stroke-linecap="round"/>
<path d="M207.766 459.279C210.145 459.279 212.074 457.35 212.074 454.971C212.074 452.591 210.145 450.662 207.766 450.662C205.386 450.662 203.457 452.591 203.457 454.971C203.457 457.35 205.386 459.279 207.766 459.279Z" fill="#87CEFA"/>
<path d="M151.123 445.061L146.879 469.292" stroke="#87CEFA" stroke-width="15.992" stroke-miterlimit="10" stroke-linecap="round"/>
<path d="M146.879 473.6C149.258 473.6 151.187 471.671 151.187 469.292C151.187 466.912 149.258 464.983 146.879 464.983C144.499 464.983 142.57 466.912 142.57 469.292C142.57 471.671 144.499 473.6 146.879 473.6Z" fill="#87CEFA"/>
<path d="M146.842 441.853L135.371 463.613" stroke="#87CEFA" stroke-width="15.992" stroke-miterlimit="10" stroke-linecap="round"/>
<path d="M135.371 467.922C137.75 467.922 139.679 465.993 139.679 463.613C139.679 461.234 137.75 459.305 135.371 459.305C132.991 459.305 131.062 461.234 131.062 463.613C131.062 465.993 132.991 467.922 135.371 467.922Z" fill="#87CEFA"/>
<path d="M142.04 439.946L124.289 456.975" stroke="#87CEFA" stroke-width="15.992" stroke-miterlimit="10" stroke-linecap="round"/>
<path d="M124.289 461.284C126.668 461.284 128.597 459.355 128.597 456.975C128.597 454.596 126.668 452.667 124.289 452.667C121.909 452.667 119.98 454.596 119.98 456.975C119.98 459.355 121.909 461.284 124.289 461.284Z" fill="#87CEFA"/>
<path d="M312.73 268.352L334.191 280.376" stroke="#87CEFA" stroke-width="15.992" stroke-miterlimit="10" stroke-linecap="round"/>
<path d="M334.187 284.685C336.567 284.685 338.496 282.756 338.496 280.376C338.496 277.997 336.567 276.068 334.187 276.068C331.808 276.068 329.879 277.997 329.879 280.376C329.879 282.756 331.808 284.685 334.187 284.685Z" fill="#87CEFA"/>
<path d="M312.949 263.007L337.062 267.871" stroke="#87CEFA" stroke-width="15.992" stroke-miterlimit="10" stroke-linecap="round"/>
<path d="M337.062 272.179C339.442 272.179 341.371 270.25 341.371 267.871C341.371 265.491 339.442 263.562 337.062 263.562C334.683 263.562 332.754 265.491 332.754 267.871C332.754 270.25 334.683 272.179 337.062 272.179Z" fill="#87CEFA"/>
<path d="M314.508 258.081L338.923 255.086" stroke="#87CEFA" stroke-width="15.992" stroke-miterlimit="10" stroke-linecap="round"/>
<path d="M338.922 259.395C341.301 259.395 343.23 257.466 343.23 255.086C343.23 252.707 341.301 250.778 338.922 250.778C336.542 250.778 334.613 252.707 334.613 255.086C334.613 257.466 336.542 259.395 338.922 259.395Z" fill="#87CEFA"/>
<path d="M292.688 289.275L307.31 309.056" stroke="#87CEFA" stroke-width="15.992" stroke-miterlimit="10" stroke-linecap="round"/>
<path d="M307.309 313.364C309.688 313.364 311.617 311.436 311.617 309.056C311.617 306.677 309.688 304.748 307.309 304.748C304.929 304.748 303 306.677 303 309.056C303 311.436 304.929 313.364 307.309 313.364Z" fill="#87CEFA"/>
<path d="M287.414 290.163L295.263 313.475" stroke="#87CEFA" stroke-width="15.992" stroke-miterlimit="10" stroke-linecap="round"/>
<path d="M295.262 317.783C297.641 317.783 299.57 315.854 299.57 313.475C299.57 311.095 297.641 309.166 295.262 309.166C292.882 309.166 290.953 311.095 290.953 313.475C290.953 315.854 292.882 317.783 295.262 317.783Z" fill="#87CEFA"/>
<path d="M282.719 292.326L282.811 316.925" stroke="#87CEFA" stroke-width="15.992" stroke-miterlimit="10" stroke-linecap="round"/>
<path d="M282.812 321.234C285.192 321.234 287.121 319.305 287.121 316.925C287.121 314.546 285.192 312.617 282.812 312.617C280.433 312.617 278.504 314.546 278.504 316.925C278.504 319.305 280.433 321.234 282.812 321.234Z" fill="#87CEFA"/>
</svg>
