<svg width="910" height="512" viewBox="0 0 910 512" fill="none" xmlns="http://www.w3.org/2000/svg">
<path d="M625.13 157.874C626.429 158.444 627.448 159.506 627.963 160.827C628.479 162.148 628.449 163.62 627.88 164.919L624.394 172.873C624.035 173.694 623.364 174.339 622.529 174.665C621.694 174.991 620.764 174.972 619.943 174.612L616.341 173.032C615.52 172.673 614.876 172.001 614.55 171.166C614.224 170.331 614.243 169.401 614.603 168.58L618.088 160.625C618.37 159.982 618.776 159.401 619.282 158.914C619.789 158.428 620.386 158.046 621.04 157.791C621.694 157.535 622.391 157.411 623.093 157.426C623.795 157.44 624.487 157.592 625.13 157.874Z" fill="#FBBEBE"/>
<path d="M627.077 158.789L620.671 155.98C619.077 155.281 617.219 156.007 616.52 157.602L614.441 162.347C613.742 163.942 614.468 165.801 616.062 166.5L622.468 169.31C624.062 170.009 625.92 169.282 626.619 167.688L628.698 162.942C629.397 161.347 628.671 159.488 627.077 158.789Z" fill="#FBBEBE"/>
<path d="M540.337 101.812L572.713 93.5866C578.102 92.2174 583.814 93.046 588.593 95.89C593.371 98.734 596.825 103.36 598.193 108.752L604.074 131.914L531.045 150.469L525.164 127.306C524.486 124.636 524.341 121.857 524.737 119.131C525.132 116.404 526.061 113.782 527.47 111.414C528.879 109.047 530.741 106.98 532.949 105.333C535.157 103.685 537.667 102.489 540.337 101.812Z" fill="#E85C5C"/>
<path d="M540.337 101.812L572.713 93.5866C578.102 92.2174 583.814 93.046 588.593 95.89C593.371 98.734 596.825 103.36 598.193 108.752L604.074 131.914L531.045 150.469L525.164 127.306C524.486 124.636 524.341 121.857 524.737 119.131C525.132 116.404 526.061 113.782 527.47 111.414C528.879 109.047 530.741 106.98 532.949 105.333C535.157 103.685 537.667 102.489 540.337 101.812Z" fill="#E85C5C"/>
<path d="M565.797 171.899C586.598 171.899 603.461 155.03 603.461 134.22C603.461 113.41 586.598 96.5404 565.797 96.5404C544.996 96.5404 528.133 113.41 528.133 134.22C528.133 155.03 544.996 171.899 565.797 171.899Z" fill="#E85C5C"/>
<path d="M598.855 139.999C602.587 139.999 605.613 136.972 605.613 133.239C605.613 129.505 602.587 126.478 598.855 126.478C595.123 126.478 592.098 129.505 592.098 133.239C592.098 136.972 595.123 139.999 598.855 139.999Z" fill="#FBBEBE"/>
<path d="M536.121 155.937C539.853 155.937 542.878 152.911 542.878 149.177C542.878 145.443 539.853 142.417 536.121 142.417C532.389 142.417 529.363 145.443 529.363 149.177C529.363 152.911 532.389 155.937 536.121 155.937Z" fill="#FBBEBE"/>
<path d="M557.675 102.922C566.017 100.804 574.857 102.087 582.253 106.49C589.648 110.892 594.993 118.053 597.112 126.398L609.698 175.976L546.774 191.964L534.187 142.385C533.138 138.251 532.913 133.95 533.525 129.729C534.138 125.508 535.576 121.449 537.757 117.785C539.939 114.12 542.82 110.921 546.238 108.371C549.656 105.82 553.542 103.969 557.675 102.922Z" fill="#FBBEBE"/>
<path d="M607.026 165.445L544.125 181.426L549.471 202.484L612.372 186.503L607.026 165.445Z" fill="#C05E5E"/>
<path d="M600.43 167.121L592.773 169.066L598.119 190.125L605.776 188.179L600.43 167.121Z" fill="#3F3F3F"/>
<path d="M585.086 171.017L577.43 172.962L582.776 194.02L590.432 192.075L585.086 171.017Z" fill="#3F3F3F"/>
<path d="M546.805 191.955L609.729 175.968L617.443 206.353C617.984 208.486 617.657 210.746 616.532 212.637C615.408 214.528 613.578 215.895 611.446 216.437L564.598 228.339C562.466 228.881 560.206 228.553 558.316 227.428C556.426 226.303 555.06 224.473 554.519 222.341L546.805 191.955Z" fill="#3F3F3F"/>
<path d="M557.787 154.827C563.619 153.346 566.959 146.68 565.248 139.94C563.537 133.2 557.422 128.938 551.591 130.419C545.759 131.901 542.418 138.566 544.129 145.306C545.84 152.046 551.955 156.309 557.787 154.827Z" fill="white"/>
<path d="M559.886 149.738C563.673 148.776 565.842 144.447 564.731 140.07C563.62 135.692 559.648 132.923 555.861 133.886C552.074 134.848 549.905 139.177 551.016 143.554C552.127 147.932 556.098 150.7 559.886 149.738Z" fill="#501E1E"/>
<path d="M559.867 137.19C560.284 136.607 559.953 135.654 559.126 135.061C558.299 134.469 557.29 134.462 556.873 135.045C556.456 135.628 556.787 136.581 557.614 137.173C558.441 137.766 559.45 137.773 559.867 137.19Z" fill="white"/>
<path d="M585.912 147.685C591.744 146.203 595.084 139.538 593.373 132.798C591.662 126.058 585.547 121.795 579.716 123.277C573.884 124.759 570.543 131.424 572.254 138.164C573.965 144.904 580.08 149.167 585.912 147.685Z" fill="white"/>
<path d="M581.636 144.21C585.423 143.248 587.592 138.919 586.481 134.542C585.37 130.164 581.399 127.396 577.611 128.358C573.824 129.32 571.655 133.649 572.766 138.026C573.877 142.404 577.848 145.173 581.636 144.21Z" fill="#501E1E"/>
<path d="M581.562 131.728C581.98 131.144 581.648 130.192 580.821 129.599C579.994 129.007 578.986 129 578.568 129.583C578.151 130.166 578.483 131.119 579.31 131.711C580.136 132.304 581.145 132.311 581.562 131.728Z" fill="white"/>
<path d="M572.277 152.012C574.012 151.571 576.106 149.997 578.229 151.258C580.352 152.519 579.599 157.923 574.239 159.284C568.88 160.645 564.837 156.397 566.505 154.107C568.174 151.817 570.178 152.547 572.277 152.012Z" fill="#E36464"/>
<path d="M570.105 159.289C570.105 159.289 572.11 154.349 578.811 155.809C578.811 155.786 576.564 160.621 570.105 159.289Z" fill="#EB8181"/>
<path d="M570.366 119.505C570.833 119.141 571.329 118.816 571.849 118.533C573.182 117.795 574.62 117.267 576.114 116.968C577.909 116.601 579.753 116.538 581.568 116.783C583.381 117.02 585.142 117.554 586.781 118.362C587.666 118.801 588.509 119.321 589.297 119.917C589.724 120.241 590.132 120.59 590.52 120.96C590.952 121.364 591.349 121.804 591.709 122.273L591.648 122.747L588.961 122.52L586.279 122.245C584.492 122.05 582.715 121.818 580.929 121.609C579.142 121.401 577.37 121.135 575.593 120.86L572.934 120.448L570.276 119.974L570.366 119.505ZM539.848 135.452C539.942 134.867 540.081 134.29 540.265 133.727C540.428 133.216 540.62 132.714 540.838 132.224C541.246 131.325 541.738 130.466 542.307 129.659C543.366 128.162 544.666 126.851 546.155 125.781C547.641 124.708 549.293 123.887 551.045 123.349C552.504 122.902 554.022 122.677 555.547 122.681C556.138 122.682 556.727 122.729 557.31 122.823L557.595 123.217L555.481 124.895L553.339 126.526C551.917 127.611 550.448 128.664 549.008 129.73C547.567 130.797 546.089 131.821 544.61 132.845L542.388 134.367L540.132 135.851L539.848 135.452Z" fill="#E36464"/>
<path d="M585.6 94.4214C585.126 94.227 584.619 94.0516 584.121 93.8951H584.06L583.401 93.7055L583.169 93.6439L582.818 93.5538C579.933 92.8532 576.931 92.7772 574.013 93.331H573.923C573.525 93.4068 573.132 93.4922 572.734 93.5917L540.358 101.817C539.97 101.916 539.591 102.03 539.212 102.149L539.112 102.177C536.281 103.084 533.676 104.585 531.473 106.581C531.411 106.634 531.355 106.695 531.298 106.747L530.947 107.079L530.658 107.364L530.35 107.681L530.056 107.999C529.961 108.098 529.871 108.203 529.781 108.307L529.487 108.644L529.435 108.705C527.543 110.975 526.15 113.617 525.346 116.461C525.289 116.651 525.251 116.84 525.204 117.03C525.095 117.452 525.005 117.879 524.924 118.305C524.872 118.571 524.82 118.831 524.782 119.097V119.159C524.388 121.874 524.535 124.64 525.213 127.298L526.398 131.959L527.933 131.565L529.232 131.238L533.497 130.148C534.444 123.985 537.387 118.087 543.131 116.627C545.236 116.093 547.455 116.214 549.49 116.973C553.344 118.595 557.622 118.918 561.675 117.891C565.729 116.865 569.338 114.545 571.957 111.284C573.386 109.651 575.279 108.494 577.383 107.966C583.126 106.506 588.282 110.336 591.94 115.338L599.39 113.441L598.205 108.781C597.393 105.559 595.827 102.576 593.635 100.079C591.443 97.5822 588.689 95.6429 585.6 94.4214Z" fill="#E85C5C"/>
<path d="M464.892 312.145C513.508 312.145 552.92 308.093 552.92 303.095C552.92 298.096 513.508 294.044 464.892 294.044C416.275 294.044 376.863 298.096 376.863 303.095C376.863 308.093 416.275 312.145 464.892 312.145Z" fill="#E5D7D7"/>
<path d="M585.752 449.564C650.496 449.564 702.981 445.513 702.981 440.514C702.981 435.516 650.496 431.464 585.752 431.464C521.009 431.464 468.523 435.516 468.523 440.514C468.523 445.513 521.009 449.564 585.752 449.564Z" fill="#E5D7D7"/>
<path d="M462.617 120.638L357.32 303.094H567.914L462.617 120.638Z" fill="url(#paint0_linear_504_418)"/>
<path d="M379.238 448.574C413.507 448.574 441.288 444.424 441.288 439.305C441.288 434.187 413.507 430.037 379.238 430.037C344.968 430.037 317.188 434.187 317.188 439.305C317.188 444.424 344.968 448.574 379.238 448.574Z" fill="#E5D7D7"/>
<path d="M310.427 400.232C359.044 400.232 398.455 396.18 398.455 391.182C398.455 386.184 359.044 382.132 310.427 382.132C261.81 382.132 222.398 386.184 222.398 391.182C222.398 396.18 261.81 400.232 310.427 400.232Z" fill="#E5D7D7"/>
<path d="M310.428 390.31C367.618 390.31 413.98 343.929 413.98 286.715C413.98 229.502 367.618 183.121 310.428 183.121C253.237 183.121 206.875 229.502 206.875 286.715C206.875 343.929 253.237 390.31 310.428 390.31Z" fill="url(#paint1_linear_504_418)"/>
<path d="M683.115 245.703H488.383V440.514H683.115V245.703Z" fill="url(#paint2_linear_504_418)"/>
<path d="M628.144 211.78L623.123 221.618C622.03 223.758 622.879 226.38 625.019 227.473L625.023 227.475C627.163 228.568 629.783 227.719 630.876 225.578L635.897 215.741C636.99 213.6 636.141 210.979 634.001 209.886L633.997 209.883C631.857 208.79 629.237 209.64 628.144 211.78Z" fill="#3F3F3F"/>
<path d="M558.045 214.346C557.085 215.392 555.748 216.014 554.329 216.075C552.91 216.135 551.525 215.629 550.479 214.668L544.064 208.775C543.403 208.168 543.01 207.323 542.972 206.426C542.934 205.529 543.253 204.654 543.86 203.992L546.524 201.091C547.131 200.429 547.975 200.036 548.872 199.998C549.768 199.96 550.643 200.28 551.304 200.887L557.723 206.783C558.767 207.744 559.388 209.08 559.448 210.498C559.508 211.916 559.004 213.3 558.045 214.346Z" fill="#FBBEBE"/>
<path d="M556.55 215.9L561.287 210.739C562.466 209.455 562.381 207.457 561.097 206.278L557.275 202.767C555.991 201.588 553.995 201.673 552.816 202.957L548.079 208.118C546.9 209.402 546.985 211.4 548.269 212.579L552.091 216.09C553.375 217.27 555.371 217.185 556.55 215.9Z" fill="#FBBEBE"/>
<path d="M546.688 235.307L549.526 240.801H556.227" stroke="#3F3F3F" stroke-width="18.46" stroke-linecap="round" stroke-linejoin="round"/>
<path d="M339.998 108.615H277.792C271.644 108.615 266.66 113.6 266.66 119.749C266.66 125.898 271.644 130.882 277.792 130.882H339.998C346.146 130.882 351.13 125.898 351.13 119.749C351.13 113.6 346.146 108.615 339.998 108.615Z" fill="#501E1E"/>
<path d="M308.89 136.495C327.909 136.495 343.327 121.071 343.327 102.044C343.327 83.0177 327.909 67.5935 308.89 67.5935C289.871 67.5935 274.453 83.0177 274.453 102.044C274.453 121.071 289.871 136.495 308.89 136.495Z" fill="#501E1E"/>
<path d="M338.41 114.797C341.823 114.797 344.589 112.029 344.589 108.615C344.589 105.201 341.823 102.433 338.41 102.433C334.997 102.433 332.23 105.201 332.23 108.615C332.23 112.029 334.997 114.797 338.41 114.797Z" fill="#FCBBBB"/>
<path d="M279.23 114.797C282.643 114.797 285.41 112.029 285.41 108.615C285.41 105.201 282.643 102.433 279.23 102.433C275.817 102.433 273.051 105.201 273.051 108.615C273.051 112.029 275.817 114.797 279.23 114.797Z" fill="#FCBBBB"/>
<path d="M308.741 72.4812C316.61 72.4812 324.156 75.6084 329.721 81.1748C335.285 86.7412 338.411 94.2909 338.411 102.163V148.935H279.066V102.163C279.066 98.2647 279.834 94.4046 281.325 90.8032C282.817 87.2017 285.003 83.9294 287.758 81.1731C290.514 78.4168 293.785 76.2306 297.385 74.7392C300.986 73.2479 304.844 72.4806 308.741 72.4812Z" fill="#FCBBBB"/>
<path d="M272.137 75.9375L269.036 77.7805C268.33 78.2005 267.485 78.3226 266.689 78.1197C265.892 77.9169 265.209 77.4058 264.789 76.6989L260.717 69.844C260.053 68.7263 259.86 67.3906 260.181 66.1307C260.502 64.8708 261.309 63.7899 262.426 63.1258C263.544 62.4616 264.879 62.2687 266.138 62.5894C267.398 62.9101 268.478 63.7181 269.142 64.8357L273.214 71.6907C273.634 72.3976 273.756 73.2424 273.553 74.0393C273.35 74.8362 272.839 75.5199 272.133 75.9399L272.137 75.9375Z" fill="#FCBBBB"/>
<path d="M272.909 74.0775L269.822 73.7508C269.706 73.7385 269.599 73.6805 269.526 73.5895C269.452 73.4986 269.418 73.3822 269.43 73.2659L270.014 67.7453C270.07 67.2189 270.332 66.7362 270.743 66.4034C271.155 66.0706 271.682 65.9149 272.208 65.9706C272.734 66.0263 273.216 66.2888 273.549 66.7004C273.882 67.112 274.038 67.639 273.982 68.1654L273.401 73.6529C273.389 73.7692 273.331 73.8759 273.24 73.9494C273.149 74.0229 273.033 74.0573 272.917 74.045L272.909 74.0775Z" fill="#FCBBBB"/>
<path d="M355.224 63.1331C356.341 63.7973 357.149 64.8782 357.47 66.1381C357.79 67.398 357.597 68.7337 356.933 69.8513L352.85 76.7267C352.43 77.4336 351.746 77.9446 350.95 78.1475C350.153 78.3503 349.309 78.2282 348.602 77.8082L345.502 75.9652C344.795 75.5451 344.284 74.8615 344.082 74.0646C343.879 73.2677 344.001 72.4229 344.421 71.716L348.505 64.8407C348.834 64.2869 349.268 63.8034 349.784 63.4179C350.3 63.0324 350.887 62.7523 351.511 62.5937C352.135 62.4351 352.784 62.4011 353.421 62.4937C354.058 62.5863 354.671 62.8035 355.224 63.1331Z" fill="#FCBBBB"/>
<path d="M345.421 65.9465C345.947 65.8908 346.474 66.0465 346.885 66.3793C347.296 66.7122 347.559 67.1949 347.615 67.7213L348.198 73.2418C348.211 73.3581 348.176 73.4745 348.103 73.5655C348.029 73.6564 347.923 73.7144 347.807 73.7267L344.72 74.0534C344.604 74.0657 344.487 74.0313 344.396 73.9578C344.306 73.8843 344.248 73.7776 344.235 73.6614L343.653 68.1549C343.597 67.6285 343.753 67.1016 344.085 66.69C344.418 66.2784 344.901 66.0158 345.427 65.9601L345.421 65.9465Z" fill="#FCBBBB"/>
<path d="M338.406 138.999H279.066V158.862H338.406V138.999Z" fill="#DF9D9D"/>
<path d="M323.761 138.999H316.539V158.862H323.761V138.999Z" fill="#884444"/>
<path d="M300.859 138.999H293.637V158.862H300.859V138.999Z" fill="#884444"/>
<path d="M279.066 148.93H338.411V177.598C338.411 179.609 337.612 181.539 336.19 182.961C334.768 184.384 332.839 185.183 330.829 185.183H286.653C284.642 185.183 282.714 184.384 281.292 182.961C279.87 181.539 279.071 179.609 279.071 177.598V148.93H279.066Z" fill="#884444"/>
<path d="M308.742 118.95C310.382 118.95 312.49 116.328 314.087 117.926C315.684 119.523 313.803 124.146 308.742 124.146C303.681 124.146 301.056 119.467 303.055 117.812C305.055 116.158 306.761 118.95 308.742 118.95Z" fill="#EF5454"/>
<path d="M295.469 118.504C300.97 118.504 305.43 113.349 305.43 106.989C305.43 100.629 300.97 95.4738 295.469 95.4738C289.968 95.4738 285.508 100.629 285.508 106.989C285.508 113.349 289.968 118.504 295.469 118.504Z" fill="white"/>
<path d="M298.476 114.465C302.049 114.465 304.945 111.118 304.945 106.989C304.945 102.86 302.049 99.5129 298.476 99.5129C294.904 99.5129 292.008 102.86 292.008 106.989C292.008 111.118 294.904 114.465 298.476 114.465Z" fill="#683636"/>
<path d="M303.375 103.078C303.878 102.655 303.799 101.734 303.199 101.021C302.6 100.307 301.706 100.072 301.203 100.495C300.7 100.918 300.779 101.839 301.379 102.553C301.979 103.266 302.872 103.501 303.375 103.078Z" fill="white"/>
<path d="M322.004 118.504C327.505 118.504 331.965 113.349 331.965 106.989C331.965 100.629 327.505 95.4738 322.004 95.4738C316.503 95.4738 312.043 100.629 312.043 106.989C312.043 113.349 316.503 118.504 322.004 118.504Z" fill="white"/>
<path d="M319 114.465C322.572 114.465 325.468 111.118 325.468 106.989C325.468 102.86 322.572 99.5129 319 99.5129C315.427 99.5129 312.531 102.86 312.531 106.989C312.531 111.118 315.427 114.465 319 114.465Z" fill="#683636"/>
<path d="M323.891 103.081C324.393 102.658 324.315 101.737 323.715 101.023C323.115 100.31 322.222 100.075 321.719 100.498C321.216 100.921 321.295 101.842 321.895 102.555C322.494 103.269 323.388 103.504 323.891 103.081Z" fill="white"/>
<path d="M325.406 71.808C320.499 69.1272 315.014 67.6816 309.424 67.5962C303.835 67.5108 298.308 68.7881 293.322 71.3177C288.336 73.8474 284.041 77.5534 280.807 82.1155C277.573 86.6777 275.498 91.9589 274.762 97.5028H274.852L279.245 102.438C279.245 102.438 280.192 97.8252 288.192 96.0759L288.628 95.9763C303.404 92.6313 316.469 84.0457 325.406 71.808Z" fill="#501E1E"/>
<path d="M322.36 70.3241C322.318 71.0399 322.289 71.7463 322.289 72.4811C322.289 79.3097 324.266 85.9922 327.979 91.7219C331.692 97.4516 336.984 101.983 343.216 104.77C343.287 103.87 343.334 102.964 343.334 102.044C343.333 95.282 341.344 88.6692 337.615 83.0291C333.886 77.389 328.581 72.9707 322.36 70.3241Z" fill="#501E1E"/>
<path d="M314.569 87.661C315.52 87.2567 316.521 86.9809 317.545 86.8408C318.44 86.7131 319.344 86.6687 320.246 86.7081C321.92 86.7911 323.567 87.1515 325.123 87.7748C326.675 88.395 328.115 89.2645 329.388 90.349C330.078 90.9386 330.713 91.5909 331.283 92.2974C331.932 93.0982 332.472 93.9813 332.89 94.9238L332.724 95.3363L330.397 94.5303L328.084 93.6817C326.544 93.1081 325.018 92.5013 323.488 91.9134C321.957 91.3256 320.436 90.6903 318.924 90.074L316.659 89.1259L314.408 88.1209L314.569 87.661ZM283.938 94.9238C284.352 93.9777 284.89 93.0912 285.539 92.288C286.11 91.5813 286.744 90.929 287.435 90.3395C288.705 89.2544 290.146 88.3877 291.7 87.7748C293.258 87.1569 294.907 86.7997 296.581 86.7176C297.483 86.6783 298.387 86.7227 299.282 86.8503C300.303 86.9897 301.302 87.2622 302.253 87.661L302.414 88.0782L300.168 89.0832L297.898 90.0314C296.386 90.6714 294.86 91.2734 293.339 91.8945C291.818 92.5155 290.283 93.0891 288.743 93.6628L286.43 94.5114L284.099 95.3173L283.938 94.9238Z" fill="#EF5454"/>
<path d="M344.555 188.89L352.137 182.082" stroke="#884444" stroke-width="17" stroke-linecap="round" stroke-linejoin="round"/>
<path d="M273.231 188.89L265.645 182.082" stroke="#884444" stroke-width="17" stroke-linecap="round" stroke-linejoin="round"/>
<path d="M416.179 326.234C416.179 348.378 336.031 348.378 336.031 326.234C336.146 315.677 340.419 305.591 347.921 298.167C355.424 290.742 365.552 286.578 376.105 286.578C386.658 286.578 396.786 290.742 404.289 298.167C411.792 305.591 416.064 315.677 416.179 326.234Z" fill="#7D2121"/>
<path d="M355.415 309.115C363.939 309.115 370.849 302.202 370.849 293.675C370.849 285.147 363.939 278.234 355.415 278.234C346.891 278.234 339.98 285.147 339.98 293.675C339.98 302.202 346.891 309.115 355.415 309.115Z" fill="#7D2121"/>
<path d="M366.68 290.01C375.205 290.01 382.115 283.097 382.115 274.57C382.115 266.042 375.205 259.129 366.68 259.129C358.156 259.129 351.246 266.042 351.246 274.57C351.246 283.097 358.156 290.01 366.68 290.01Z" fill="#7D2121"/>
<path d="M379.184 293.22C387.708 293.22 394.619 286.307 394.619 277.779C394.619 269.251 387.708 262.338 379.184 262.338C370.66 262.338 363.75 269.251 363.75 277.779C363.75 286.307 370.66 293.22 379.184 293.22Z" fill="#7D2121"/>
<path d="M390.907 311.528C399.431 311.528 406.341 304.615 406.341 296.088C406.341 287.56 399.431 280.647 390.907 280.647C382.383 280.647 375.473 287.56 375.473 296.088C375.473 304.615 382.383 311.528 390.907 311.528Z" fill="#7D2121"/>
<path d="M373.048 318.184C381.572 318.184 388.482 311.271 388.482 302.744C388.482 294.216 381.572 287.303 373.048 287.303C364.523 287.303 357.613 294.216 357.613 302.744C357.613 311.271 364.523 318.184 373.048 318.184Z" fill="#7D2121"/>
<path d="M341.65 341.077C345.62 341.077 348.839 337.857 348.839 333.886C348.839 329.914 345.62 326.694 341.65 326.694C337.679 326.694 334.461 329.914 334.461 333.886C334.461 337.857 337.679 341.077 341.65 341.077Z" fill="#BB6060"/>
<path d="M406.15 341.077C410.12 341.077 413.339 337.857 413.339 333.886C413.339 329.914 410.12 326.694 406.15 326.694C402.179 326.694 398.961 329.914 398.961 333.886C398.961 337.857 402.179 341.077 406.15 341.077Z" fill="#BB6060"/>
<path d="M376.363 291.409C385.52 291.409 394.302 295.048 400.777 301.525C407.252 308.003 410.89 316.789 410.89 325.95V380.8H341.836V325.95C341.836 316.789 345.474 308.003 351.949 301.525C358.424 295.048 367.206 291.409 376.363 291.409Z" fill="#BB6060"/>
<path d="M369.969 430.018H358.217C355.657 430.018 353.582 432.094 353.582 434.655C353.582 437.215 355.657 439.291 358.217 439.291H369.969C372.528 439.291 374.603 437.215 374.603 434.655C374.603 432.094 372.528 430.018 369.969 430.018Z" fill="#C05E5E"/>
<path d="M399.719 430.018H387.967C385.407 430.018 383.332 432.094 383.332 434.655C383.332 437.215 385.407 439.291 387.967 439.291H399.719C402.278 439.291 404.353 437.215 404.353 434.655C404.353 432.094 402.278 430.018 399.719 430.018Z" fill="#C05E5E"/>
<path d="M419.142 386.493L422.747 384.35C423.57 383.861 424.552 383.719 425.479 383.955C426.406 384.191 427.201 384.786 427.69 385.608L432.427 393.584C433.198 394.881 433.422 396.431 433.05 397.893C432.677 399.355 431.74 400.61 430.444 401.381C429.147 402.151 427.598 402.375 426.136 402.003C424.674 401.631 423.42 400.693 422.65 399.396L417.913 391.42C417.427 390.603 417.284 389.626 417.514 388.704C417.744 387.781 418.329 386.986 419.142 386.493Z" fill="#BB6060"/>
<path d="M418.271 388.671L421.862 389.051C421.999 389.065 422.124 389.133 422.21 389.24C422.296 389.346 422.336 389.483 422.322 389.619L421.641 396.054C421.576 396.667 421.271 397.229 420.792 397.616C420.313 398.004 419.7 398.185 419.088 398.12C418.475 398.055 417.914 397.75 417.526 397.271C417.139 396.791 416.958 396.178 417.023 395.565L417.703 389.13C417.718 388.994 417.786 388.869 417.892 388.783C417.999 388.697 418.135 388.656 418.271 388.671Z" fill="#BB6060"/>
<path d="M410.885 369.242H341.836V392.358H410.885V369.242Z" fill="#3F3F3F"/>
<path d="M398.578 369.242H390.176V392.358H398.578V369.242Z" fill="#C05E5E"/>
<path d="M376.671 369.242H368.27V392.358H376.671V369.242Z" fill="#C05E5E"/>
<path d="M341.836 380.8H410.89V414.156C410.89 416.497 409.96 418.742 408.306 420.398C406.651 422.053 404.407 422.983 402.066 422.983H350.674C348.334 422.983 346.089 422.053 344.435 420.398C342.78 418.742 341.85 416.497 341.85 414.156V380.8H341.836Z" fill="#C05E5E"/>
<path d="M338.352 320.028C337.736 322.124 337.404 324.826 339.054 326.135C340.475 327.244 342.565 326.575 343.764 325.224C344.963 323.873 345.503 322.029 346.133 320.299C348.38 314.178 352 309.907 356.909 305.915C358.928 304.275 363.217 301.284 367.52 300.847C372.988 300.293 375.751 302.616 377.471 303.668C380.816 305.707 384.513 307.102 388.37 307.783C388.441 307.795 388.514 307.784 388.578 307.751C388.642 307.717 388.693 307.664 388.723 307.598C388.754 307.533 388.761 307.459 388.746 307.389C388.73 307.319 388.691 307.256 388.636 307.21C387.137 306.028 386.032 304.42 385.466 302.597C385.443 302.5 385.451 302.399 385.489 302.307C385.527 302.215 385.593 302.138 385.677 302.086C385.761 302.033 385.86 302.009 385.959 302.015C386.058 302.022 386.152 302.06 386.229 302.123C388.735 304.536 395.19 310.281 401.516 313.529C405.435 315.544 410.638 318.27 414.652 320.076C415.24 315.577 413.486 311.007 410.78 307.489C408.074 303.972 404.492 301.359 400.886 298.956C393.924 294.272 386.442 290.001 378.272 288.92C374.073 288.398 369.813 288.716 365.738 289.855C361.663 290.994 357.855 292.933 354.535 295.557C347.787 300.885 339.774 311.239 338.352 320.028Z" fill="#7D2121"/>
<path d="M367.564 345.391C373.965 345.391 379.155 339.393 379.155 331.994C379.155 324.595 373.965 318.597 367.564 318.597C361.162 318.597 355.973 324.595 355.973 331.994C355.973 339.393 361.162 345.391 367.564 345.391Z" fill="white"/>
<path d="M371.06 340.693C375.216 340.693 378.586 336.799 378.586 331.994C378.586 327.19 375.216 323.295 371.06 323.295C366.904 323.295 363.535 327.19 363.535 331.994C363.535 336.799 366.904 340.693 371.06 340.693Z" fill="#501E1E"/>
<path d="M376.759 327.445C377.345 326.952 377.254 325.877 376.555 325.046C375.856 324.214 374.813 323.94 374.227 324.434C373.64 324.928 373.731 326.002 374.43 326.834C375.129 327.665 376.172 327.939 376.759 327.445Z" fill="white"/>
<path d="M396.54 345.391C402.942 345.391 408.132 339.393 408.132 331.994C408.132 324.595 402.942 318.597 396.54 318.597C390.139 318.597 384.949 324.595 384.949 331.994C384.949 339.393 390.139 345.391 396.54 345.391Z" fill="white"/>
<path d="M393.041 340.693C397.197 340.693 400.566 336.799 400.566 331.994C400.566 327.19 397.197 323.295 393.041 323.295C388.885 323.295 385.516 327.19 385.516 331.994C385.516 336.799 388.885 340.693 393.041 340.693Z" fill="#501E1E"/>
<path d="M398.743 327.444C399.33 326.95 399.239 325.876 398.539 325.045C397.84 324.213 396.798 323.939 396.211 324.433C395.624 324.927 395.715 326.001 396.414 326.833C397.114 327.664 398.156 327.938 398.743 327.444Z" fill="white"/>
<path d="M387.885 312.258C388.462 312.008 389.058 311.803 389.667 311.647C390.22 311.503 390.78 311.387 391.345 311.301C392.387 311.153 393.44 311.102 394.491 311.149C398.411 311.348 402.154 312.838 405.139 315.387C406.381 316.435 407.452 317.67 408.314 319.047C408.653 319.577 408.948 320.133 409.196 320.711L409.006 321.185L406.296 320.237L403.604 319.251C401.813 318.587 400.04 317.876 398.254 317.193C396.467 316.511 394.709 315.771 392.946 315.027L390.312 313.903L387.696 312.728L387.885 312.258ZM375.508 312.415C375.28 313.001 375.005 313.567 374.683 314.107C374.384 314.624 374.062 315.089 373.735 315.529C373.105 316.371 372.396 317.15 371.617 317.857C370.176 319.171 368.524 320.234 366.731 321C364.942 321.781 363.037 322.261 361.092 322.422C360.044 322.502 358.99 322.484 357.945 322.37C357.38 322.304 356.818 322.207 356.263 322.081C355.649 321.946 355.047 321.76 354.462 321.526L354.254 321.052L356.837 319.801L359.438 318.597C361.173 317.796 362.931 317.042 364.651 316.264C366.371 315.487 368.167 314.766 369.935 314.046L372.593 312.974L375.313 311.941L375.508 312.415ZM373.048 349.999C373.075 349.074 373.329 348.168 373.787 347.364C374.243 346.525 374.881 345.799 375.654 345.24C376.091 344.929 376.57 344.681 377.076 344.505C377.634 344.31 378.22 344.209 378.81 344.206C379.96 344.204 381.088 344.519 382.071 345.116C382.753 345.54 383.388 346.034 383.966 346.591C384.236 346.89 384.557 347.139 384.914 347.326C385.371 347.504 385.879 347.504 386.336 347.326C387.039 347.035 387.682 346.616 388.231 346.088C388.374 346.811 388.311 347.559 388.048 348.247C387.786 348.936 387.335 349.536 386.748 349.98C386.28 350.329 385.744 350.576 385.175 350.706C384.585 350.858 383.971 350.887 383.369 350.791C382.805 350.703 382.258 350.532 381.744 350.284C380.829 349.843 380.232 349.431 379.782 349.222C379.435 349.043 379.06 348.923 378.673 348.866C378.493 348.833 378.311 348.812 378.128 348.805C377.884 348.801 377.64 348.817 377.398 348.852C376.747 348.955 376.104 349.106 375.474 349.302C374.745 349.506 373.977 349.758 373.048 349.999Z" fill="#A54747"/>
<path d="M390.512 353.616C390.884 355.078 390.661 356.628 389.89 357.926C389.12 359.223 387.866 360.16 386.404 360.533L377.417 362.821C376.49 363.057 375.507 362.915 374.685 362.426C373.863 361.937 373.268 361.142 373.033 360.215L371.998 356.149C371.762 355.221 371.904 354.238 372.393 353.416C372.881 352.593 373.676 351.999 374.603 351.763L383.577 349.478C385.038 349.105 386.588 349.329 387.885 350.1C389.181 350.871 390.118 352.125 390.49 353.588L390.512 353.616Z" fill="#A76060"/>
<path d="M380.091 347.868C380.57 348.255 380.875 348.817 380.94 349.43C381.005 350.042 380.823 350.656 380.436 351.135L376.378 356.156C376.335 356.208 376.283 356.252 376.223 356.285C376.164 356.317 376.098 356.337 376.031 356.345C375.963 356.352 375.895 356.345 375.83 356.326C375.765 356.307 375.704 356.275 375.652 356.232L372.844 353.961C372.791 353.918 372.747 353.866 372.715 353.806C372.682 353.747 372.662 353.681 372.655 353.614C372.648 353.546 372.654 353.478 372.673 353.413C372.692 353.348 372.724 353.287 372.767 353.234L376.825 348.214C377.212 347.734 377.774 347.429 378.386 347.364C378.999 347.299 379.612 347.48 380.091 347.868Z" fill="#A76060"/>
<defs>
<linearGradient id="paint0_linear_504_418" x1="357.32" y1="211.864" x2="567.914" y2="211.864" gradientUnits="userSpaceOnUse">
<stop stop-color="#FBB5B5"/>
<stop offset="1" stop-color="#CD6A6A"/>
</linearGradient>
<linearGradient id="paint1_linear_504_418" x1="206.875" y1="286.715" x2="413.98" y2="286.715" gradientUnits="userSpaceOnUse">
<stop stop-color="#EFA4A4"/>
<stop offset="1" stop-color="#D17171"/>
</linearGradient>
<linearGradient id="paint2_linear_504_418" x1="488.383" y1="343.106" x2="683.115" y2="343.106" gradientUnits="userSpaceOnUse">
<stop stop-color="#F9C3C3"/>
<stop offset="1" stop-color="#BF7373"/>
</linearGradient>
</defs>
</svg>
