<svg width="512" height="1138" viewBox="0 0 512 1138" fill="none" xmlns="http://www.w3.org/2000/svg">
<g clip-path="url(#clip0_504_24)">
<path d="M255.4 620.8C396.454 620.8 510.8 565.552 510.8 497.4C510.8 429.248 396.454 374 255.4 374C114.346 374 0 429.248 0 497.4C0 565.552 114.346 620.8 255.4 620.8Z" fill="black"/>
<path d="M383.599 315.1C383.599 315.1 311.499 495 291.499 699.2C281.899 797.2 268.799 884.5 268.799 884.5L318.599 897.5C318.599 897.5 443.299 575.9 453.199 330.2C453.199 330.1 426.199 335.8 383.599 315.1Z" fill="#D14F4F"/>
<path d="M370.599 330.6C370.599 330.6 365.499 343.1 382.399 353.9C399.299 364.7 427.499 367.8 437.499 367.4C447.499 367 456.499 356.9 457.699 349.1C458.899 341.3 480.699 215.8 474.999 181.7C474.999 181.7 451.399 190.3 426.099 172.2C419.199 167.4 381.599 297.5 370.599 330.6Z" fill="#FCE1E1"/>
<path d="M444.298 188.2C444.298 188.2 400.498 182.2 409.798 118.3C419.098 54.4 476.098 10.9 476.098 10.9C476.098 10.9 471.698 32.4 482.198 51C501.798 85.7 492.798 106.2 492.798 106.2C492.798 106.2 504.498 95.2 503.198 78.1C502.098 63.7 521.598 95.3 505.798 140.8C493.998 175 471.898 198.3 444.298 188.2Z" fill="#D14F4F"/>
<path d="M437.7 168.9C437.7 168.9 418.9 144.3 431.2 104.4C443.5 64.5 457.5 54.6 457.5 54.6C457.5 54.6 424.1 118.3 437.7 168.9ZM466.799 88C466.799 88 483.8 126.5 451.2 156.4C451.3 156.3 463.999 124.8 466.799 88Z" fill="#FCE1E1"/>
<path d="M69.0996 446.4C69.0996 446.4 117.3 715.4 142.4 775.7L172.6 770.2C172.6 770.2 145 552 118.5 437.5L69.0996 446.4Z" fill="#D14F4F"/>
<path d="M69.0994 446.4C69.0994 446.4 69.5994 458.9 87.0994 460.6C95.5994 461.4 102.999 459.4 108.499 456C117.399 450.5 120.499 444.2 118.499 437.6C116.499 431 91.4994 333.7 73.2994 296.9C73.2994 296.9 62.6994 302.1 54.5994 300.1C50.2994 299.1 65.5994 417.5 69.0994 446.4Z" fill="#FCE1E1"/>
<path d="M64.4995 303C64.4995 303 44.0995 307.3 37.9995 277.4C31.8995 247.5 50.3995 219.1 50.3995 219.1C50.3995 219.1 51.8995 229.4 59.4995 236C73.6995 248.2 72.9995 258.8 72.9995 258.8C72.9995 258.8 76.3995 252 73.0995 244.7C70.2995 238.5 83.9995 249.4 84.2995 272.2C84.3995 289.2 78.2995 303.1 64.4995 303Z" fill="#D14F4F"/>
<path d="M58.5003 295.4C58.5003 295.4 46.2003 287.5 45.3003 267.8C44.4003 248.1 49.0003 241.4 49.0003 241.4C49.0003 241.4 44.4003 275.1 58.5003 295.4ZM58.5003 254.8C58.5003 254.8 72.2003 269.2 62.5003 287.7C62.5003 287.7 63.1003 271.6 58.5003 254.8Z" fill="#FCE1E1"/>
<path d="M286.499 445.1C286.499 445.1 264.299 791 276.899 872.9L315.799 875.3C315.799 875.3 347.999 598.2 350.099 449.2L286.499 445.1Z" fill="#C72F2F"/>
<path d="M286.499 445.1C286.499 445.1 283.299 460.7 304.399 468C314.699 471.6 324.3 471.3 332.2 468.8C344.8 464.7 350.499 458 350.099 449.2C349.699 440.4 348.399 313 337.099 262.3C337.099 262.3 322.499 265.4 313.099 260.6C307.999 257.9 290.899 408.5 286.499 445.1Z" fill="#FCE1E1"/>
<path d="M324.2 267.1C324.2 267.1 297.7 266.2 299.3 227.6C300.9 188.9 332.2 159.5 332.2 159.5C332.2 159.5 330.9 172.6 338.3 183C352.1 202.5 348 215.3 348 215.3C348 215.3 354.3 208 352.5 197.9C351 189.4 364.5 207 357.9 235.1C353 256.1 341.3 271.4 324.2 267.1Z" fill="#D14F4F"/>
<path d="M319.199 255.9C319.199 255.9 306.499 242.4 311.299 217.9C316.199 193.4 323.899 186.6 323.899 186.6C323.899 186.6 307.899 226.6 319.199 255.9ZM331.499 205.9C331.499 205.9 343.999 227.8 326.399 247.6C326.399 247.6 332.099 228.1 331.499 205.9Z" fill="#FCE1E1"/>
<path d="M130.198 257.8C130.198 257.8 123.798 437.4 170.598 621.7C192.998 710.1 209.098 790.4 209.098 790.4L256.598 786.1C256.598 786.1 264.298 466.5 195.698 249.1C195.598 249.1 173.898 262.5 130.198 257.8Z" fill="#EB8181"/>
<path d="M123.798 275.4C123.798 275.4 123.298 287.9 141.398 292C159.498 296.1 185.098 290 193.698 286.5C202.298 283 206.998 271.4 205.598 264.2C204.198 257 186.598 141.1 170.898 113.2C170.898 113.2 150.198 127.7 122.498 119.9C114.898 117.8 122.898 243.1 123.798 275.4Z" fill="#FCE1E1"/>
<path d="M119.998 155.4C119.998 155.4 93.9984 136.1 88.3984 9.6L188.198 0C188.198 0 213.498 128.1 181.798 150C181.798 150 132.498 156.1 119.998 155.4Z" fill="#D14F4F"/>
<path d="M112.298 21.5C112.298 21.5 107.398 57.1 123.298 90.7C123.298 90.7 124.498 55.4 112.298 21.5ZM171.098 16C171.098 16 182.498 50 173.098 86C173.098 86 165.298 51.6 171.098 16ZM140.998 18.8C140.998 18.8 155.698 51.6 149.798 88.3C149.798 88.3 138.798 54.8 140.998 18.8Z" fill="#FCE1E1"/>
<path d="M-0.000911951 497.4L44.2991 1040C44.2991 1040 75.1991 1136.3 270.799 1137.5C270.799 1137.5 429.399 1140 471.299 1043.7L510.799 497.5C510.799 497.5 512.199 548.6 437.999 583.7C310.299 644 150.999 619 82.9991 588.5C-3.00092 549.8 -0.000911951 497.4 -0.000911951 497.4Z" fill="#C72F2F"/>
<path d="M11 632.4C11 632.4 93.3 622.1 151.2 706.2C209.1 790.3 199.1 795.2 255.4 817.4C311.7 839.5 345.4 898.8 255.4 922.8C165.4 946.8 141 1003.8 38.4 967.9L36.4 946.2C36.4 946.2 84.9 985.1 160.9 944.3C236.9 903.5 251.9 909.6 268.8 897.3C285.7 885 308.5 882 277.7 851.1C246.9 820.2 233.6 831.4 201.5 807.9C169.4 784.5 153.7 729.5 124.7 697.5C95.7 665.5 51.9 647.2 12.7 652.6L11 632.4Z" fill="#FCE1E1"/>
<path d="M18.8984 729C18.8984 729 85.7984 728.5 117.898 790.4C149.998 852.3 154.698 867.9 111.898 886.9C69.0984 905.9 29.8984 864.7 29.8984 864.7L27.9984 842.6C27.9984 842.6 73.6984 885.6 106.698 867.4C142.698 847.5 99.8984 799.5 82.5984 777.3C65.4984 755 20.4984 748 20.4984 748L18.8984 729ZM245.598 1136.7C245.598 1136.7 253.098 1069.1 344.398 1033.3C435.698 997.5 460.398 944.4 430.798 865.5C401.198 786.5 359.198 750.7 398.698 698.9C438.198 647.1 501.898 620.9 501.898 620.9L500.398 642.2C500.398 642.2 424.698 672.3 405.498 729.1C405.498 729.1 394.998 759.4 423.398 801.4C452.198 843.9 474.598 903.2 456.698 960.6C439.098 1017.2 369.798 1037 324.398 1064.3C265.998 1099.4 270.798 1137.5 270.798 1137.5L245.598 1136.7Z" fill="#FCE1E1"/>
</g>
<defs>
<clipPath id="clip0_504_24">
<rect width="512" height="1137.5" fill="white"/>
</clipPath>
</defs>
</svg>
