<svg width="512" height="512" viewBox="0 0 512 512" fill="none" xmlns="http://www.w3.org/2000/svg">
<path d="M483.328 471.04H468.992V41.984H486.4C495.616 41.984 501.76 34.816 501.76 26.624C501.76 17.408 494.592 10.24 486.4 10.24H25.6002C17.4082 10.24 10.2402 17.408 10.2402 25.6C10.2402 34.816 17.4082 40.96 25.6002 40.96H43.0082V471.04H28.6722C20.4802 471.04 13.3122 478.208 13.3122 486.4C13.3122 494.592 20.4802 501.76 28.6722 501.76C70.6562 501.76 70.6562 501.76 97.2802 501.76C105.472 501.76 112.64 494.592 112.64 486.4C112.64 478.208 105.472 471.04 97.2802 471.04H82.9442V41.984H139.264C146.432 62.464 154.624 73.728 164.864 75.776C163.84 125.952 155.648 173.056 159.744 224.256C163.84 270.336 163.84 314.368 159.744 362.496C149.504 365.568 143.36 377.856 139.264 392.192C128 393.216 118.784 402.432 118.784 413.696C118.784 424.96 128 435.2 140.288 435.2H364.544C375.808 435.2 386.048 425.984 386.048 413.696C386.048 402.432 376.832 392.192 364.544 392.192H362.496C358.4 378.88 352.256 367.616 344.064 363.52C348.16 315.392 348.16 270.336 344.064 224.256C337.92 174.08 347.136 126.976 347.136 75.776C359.424 72.704 367.616 58.368 372.736 41.984H429.056V471.04H414.72C406.528 471.04 399.36 478.208 399.36 486.4C399.36 494.592 406.528 501.76 414.72 501.76C456.704 501.76 456.704 501.76 483.328 501.76C491.52 501.76 498.688 494.592 498.688 486.4C498.688 477.184 491.52 471.04 483.328 471.04ZM331.776 224.256C335.872 270.336 335.872 314.368 331.776 362.496C321.536 365.568 315.392 377.856 311.296 391.168H188.416C184.32 377.856 178.176 366.592 169.984 362.496C174.08 314.368 174.08 269.312 169.984 223.232C164.864 174.08 174.08 126.976 174.08 75.776C186.368 72.704 193.536 58.368 199.68 41.984H311.296C318.464 62.464 326.656 73.728 336.896 75.776C336.896 125.952 327.68 174.08 331.776 224.256ZM149.504 41.984H188.416C183.296 55.296 177.152 66.56 168.96 66.56C162.816 66.56 155.648 58.368 149.504 41.984ZM162.816 371.712C167.936 371.712 172.032 377.856 177.152 391.168H149.504C153.6 378.88 157.696 371.712 162.816 371.712ZM350.208 392.192H322.56C326.656 378.88 331.776 372.736 335.872 372.736C340.992 371.712 345.088 378.88 350.208 392.192ZM343.04 66.56C335.872 66.56 329.728 58.368 323.584 41.984H362.496C357.376 55.296 351.232 66.56 343.04 66.56Z" fill="#EB8181"/>
</svg>
