<?xml version="1.0" standalone="no"?>
<svg xmlns:xlink="http://www.w3.org/1999/xlink" id="wave" style="transform:rotate(0deg); transition: 0.3s" viewBox="0 0 1440 490" version="1.1" xmlns="http://www.w3.org/2000/svg"><defs><linearGradient id="sw-gradient-0" x1="0" x2="0" y1="1" y2="0"><stop stop-color="rgba(243, 106, 62, 1)" offset="0%"/><stop stop-color="rgba(255, 179, 11, 1)" offset="100%"/></linearGradient></defs><path style="transform:translate(0, 0px); opacity:1" fill="url(#sw-gradient-0)" d="M0,245L80,277.7C160,310,320,376,480,343C640,310,800,180,960,130.7C1120,82,1280,114,1440,106.2C1600,98,1760,49,1920,24.5C2080,0,2240,0,2400,32.7C2560,65,2720,131,2880,138.8C3040,147,3200,98,3360,130.7C3520,163,3680,278,3840,285.8C4000,294,4160,196,4320,204.2C4480,212,4640,327,4800,343C4960,359,5120,278,5280,253.2C5440,229,5600,261,5760,277.7C5920,294,6080,294,6240,277.7C6400,261,6560,229,6720,228.7C6880,229,7040,261,7200,277.7C7360,294,7520,294,7680,310.3C7840,327,8000,359,8160,318.5C8320,278,8480,163,8640,171.5C8800,180,8960,310,9120,326.7C9280,343,9440,245,9600,220.5C9760,196,9920,245,10080,269.5C10240,294,10400,294,10560,253.2C10720,212,10880,131,11040,155.2C11200,180,11360,310,11440,375.7L11520,441L11520,490L11440,490C11360,490,11200,490,11040,490C10880,490,10720,490,10560,490C10400,490,10240,490,10080,490C9920,490,9760,490,9600,490C9440,490,9280,490,9120,490C8960,490,8800,490,8640,490C8480,490,8320,490,8160,490C8000,490,7840,490,7680,490C7520,490,7360,490,7200,490C7040,490,6880,490,6720,490C6560,490,6400,490,6240,490C6080,490,5920,490,5760,490C5600,490,5440,490,5280,490C5120,490,4960,490,4800,490C4640,490,4480,490,4320,490C4160,490,4000,490,3840,490C3680,490,3520,490,3360,490C3200,490,3040,490,2880,490C2720,490,2560,490,2400,490C2240,490,2080,490,1920,490C1760,490,1600,490,1440,490C1280,490,1120,490,960,490C800,490,640,490,480,490C320,490,160,490,80,490L0,490Z"/></svg>