<?xml version="1.0" standalone="no"?>
<svg xmlns:xlink="http://www.w3.org/1999/xlink" id="wave" style="transform:rotate(180deg); transition: 0.3s" viewBox="0 0 1440 370" version="1.1" xmlns="http://www.w3.org/2000/svg"><defs><linearGradient id="sw-gradient-0" x1="0" x2="0" y1="1" y2="0"><stop stop-color="rgba(243, 182.496, 62, 1)" offset="0%"/><stop stop-color="rgba(255, 224, 102, 1)" offset="100%"/></linearGradient></defs><path style="transform:translate(0, 0px); opacity:1" fill="url(#sw-gradient-0)" d="M0,333L48,326.8C96,321,192,308,288,271.3C384,234,480,173,576,135.7C672,99,768,86,864,74C960,62,1056,49,1152,37C1248,25,1344,12,1440,12.3C1536,12,1632,25,1728,74C1824,123,1920,210,2016,240.5C2112,271,2208,247,2304,240.5C2400,234,2496,247,2592,234.3C2688,222,2784,185,2880,178.8C2976,173,3072,197,3168,185C3264,173,3360,123,3456,135.7C3552,148,3648,222,3744,222C3840,222,3936,148,4032,135.7C4128,123,4224,173,4320,172.7C4416,173,4512,123,4608,123.3C4704,123,4800,173,4896,185C4992,197,5088,173,5184,148C5280,123,5376,99,5472,129.5C5568,160,5664,247,5760,271.3C5856,296,5952,259,6048,209.7C6144,160,6240,99,6336,74C6432,49,6528,62,6624,67.8C6720,74,6816,74,6864,74L6912,74L6912,370L6864,370C6816,370,6720,370,6624,370C6528,370,6432,370,6336,370C6240,370,6144,370,6048,370C5952,370,5856,370,5760,370C5664,370,5568,370,5472,370C5376,370,5280,370,5184,370C5088,370,4992,370,4896,370C4800,370,4704,370,4608,370C4512,370,4416,370,4320,370C4224,370,4128,370,4032,370C3936,370,3840,370,3744,370C3648,370,3552,370,3456,370C3360,370,3264,370,3168,370C3072,370,2976,370,2880,370C2784,370,2688,370,2592,370C2496,370,2400,370,2304,370C2208,370,2112,370,2016,370C1920,370,1824,370,1728,370C1632,370,1536,370,1440,370C1344,370,1248,370,1152,370C1056,370,960,370,864,370C768,370,672,370,576,370C480,370,384,370,288,370C192,370,96,370,48,370L0,370Z"/></svg>